<svg width="1546px" height="320px"
 viewBox="0.00 0.00 1546.00 320.00" xmlns="http://www.w3.org/2000/svg" xmlns:xlink="http://www.w3.org/1999/xlink">
<g id="graph0" class="graph" transform="scale(1.0 1.0) rotate(0) translate(4 316)">
<title>fulib.labworkflow</title>
<polygon fill="white" stroke="none" points="-4,4 -4,-316 1542,-316 1542,4 -4,4"/>
<!-- AddReagent -->
<g id="node1" class="node"><title>AddReagent</title>
<polygon fill="none" stroke="black" points="369,-40 369,-61 461,-61 461,-40 369,-40"/>
<text text-anchor="start" x="380" y="-46.8" font-family="Times New Roman,serif" font-size="14.00">AddReagent</text>
<polygon fill="none" stroke="black" points="369,-19 369,-40 461,-40 461,-19 369,-19"/>
<text text-anchor="start" x="372" y="-25.8" font-family="Times New Roman,serif" font-size="14.00">volume :double</text>
</g>
<!-- ProtocolStep -->
<g id="node12" class="node"><title>ProtocolStep</title>
<polygon fill="none" stroke="black" points="201,-163.5 201,-184.5 282,-184.5 282,-163.5 201,-163.5"/>
<text text-anchor="start" x="204" y="-170.3" font-family="Times New Roman,serif" font-size="14.00">ProtocolStep</text>
<polygon fill="none" stroke="black" points="201,-142.5 201,-163.5 282,-163.5 282,-142.5 201,-142.5"/>
<text text-anchor="start" x="216" y="-149.3" font-family="Times New Roman,serif" font-size="14.00">id :String</text>
</g>
<!-- AddReagent&#45;&gt;ProtocolStep -->
<g id="edge10" class="edge"><title>AddReagent&#45;&gt;ProtocolStep</title>
<path fill="none" stroke="black" d="M380.623,-65.0045C352.949,-84.3284 313.897,-111.598 284.127,-132.385"/>
<polygon fill="none" stroke="black" points="281.798,-129.743 275.603,-138.338 285.806,-135.482 281.798,-129.743"/>
</g>
<!-- Reagent -->
<g id="node13" class="node"><title>Reagent</title>
<polygon fill="none" stroke="black" points="375,-170.5 375,-191.5 459,-191.5 459,-170.5 375,-170.5"/>
<text text-anchor="start" x="394" y="-177.3" font-family="Times New Roman,serif" font-size="14.00">Reagent</text>
<polygon fill="none" stroke="black" points="375,-134.5 375,-170.5 459,-170.5 459,-134.5 375,-134.5"/>
<text text-anchor="start" x="378" y="-156.3" font-family="Times New Roman,serif" font-size="14.00">name :String</text>
<text text-anchor="start" x="378" y="-141.3" font-family="Times New Roman,serif" font-size="14.00">source :String</text>
</g>
<!-- AddReagent&#45;&gt;Reagent -->
<g id="edge1" class="edge"><title>AddReagent&#45;&gt;Reagent</title>
<path fill="none" stroke="black" d="M415.395,-65.0045C415.705,-83.8154 416.138,-110.156 416.477,-130.716"/>
<text text-anchor="middle" x="396.477" y="-119.516" font-family="Times New Roman,serif" font-size="14.00">reagent</text>
<text text-anchor="middle" x="360.895" y="-68.8045" font-family="Times New Roman,serif" font-size="14.00">addReagentSteps *</text>
</g>
<!-- Assay -->
<g id="node2" class="node"><title>Assay</title>
<polygon fill="none" stroke="black" points="495,-40 495,-61 571,-61 571,-40 495,-40"/>
<text text-anchor="start" x="515.5" y="-46.8" font-family="Times New Roman,serif" font-size="14.00">Assay</text>
<polygon fill="none" stroke="black" points="495,-19 495,-40 571,-40 571,-19 495,-19"/>
<text text-anchor="start" x="498" y="-25.8" font-family="Times New Roman,serif" font-size="14.00">name :String</text>
</g>
<!-- JobRequest -->
<g id="node8" class="node"><title>JobRequest</title>
<polygon fill="none" stroke="black" points="497,-155.5 497,-176.5 570,-176.5 570,-155.5 497,-155.5"/>
<text text-anchor="start" x="500" y="-162.3" font-family="Times New Roman,serif" font-size="14.00">JobRequest</text>
<polygon fill="none" stroke="black" points="497,-149.5 497,-155.5 570,-155.5 570,-149.5 497,-149.5"/>
</g>
<!-- Assay&#45;&gt;JobRequest -->
<g id="edge2" class="edge"><title>Assay&#45;&gt;JobRequest</title>
<path fill="none" stroke="black" d="M533,-65.0045C533,-88.6565 533,-124.212 533,-145.215"/>
<text text-anchor="middle" x="501" y="-134.015" font-family="Times New Roman,serif" font-size="14.00">jobRequest</text>
<text text-anchor="middle" x="517.5" y="-68.8045" font-family="Times New Roman,serif" font-size="14.00">assay</text>
</g>
<!-- Assay&#45;&gt;Reagent -->
<g id="edge3" class="edge"><title>Assay&#45;&gt;Reagent</title>
<path fill="none" stroke="black" d="M510.082,-65.0045C492.123,-83.8154 466.975,-110.156 447.345,-130.716"/>
<text text-anchor="middle" x="475.845" y="-119.516" font-family="Times New Roman,serif" font-size="14.00">reagents *</text>
<text text-anchor="middle" x="494.582" y="-68.8045" font-family="Times New Roman,serif" font-size="14.00">assay</text>
</g>
<!-- DistributeSample -->
<g id="node3" class="node"><title>DistributeSample</title>
<polygon fill="none" stroke="black" points="8,-40 8,-61 110,-61 110,-40 8,-40"/>
<text text-anchor="start" x="11" y="-46.8" font-family="Times New Roman,serif" font-size="14.00">DistributeSample</text>
<polygon fill="none" stroke="black" points="8,-19 8,-40 110,-40 110,-19 8,-19"/>
<text text-anchor="start" x="16" y="-25.8" font-family="Times New Roman,serif" font-size="14.00">volume :double</text>
</g>
<!-- DistributeSample&#45;&gt;ProtocolStep -->
<g id="edge11" class="edge"><title>DistributeSample&#45;&gt;ProtocolStep</title>
<path fill="none" stroke="black" d="M94.9573,-65.0045C124.028,-84.4114 165.102,-111.832 196.29,-132.652"/>
<polygon fill="none" stroke="black" points="194.546,-135.696 204.806,-138.338 198.433,-129.874 194.546,-135.696"/>
</g>
<!-- Incubate -->
<g id="node4" class="node"><title>Incubate</title>
<polygon fill="none" stroke="black" points="145,-47 145,-68 262,-68 262,-47 145,-47"/>
<text text-anchor="start" x="179" y="-53.8" font-family="Times New Roman,serif" font-size="14.00">Incubate</text>
<polygon fill="none" stroke="black" points="145,-11 145,-47 262,-47 262,-11 145,-11"/>
<text text-anchor="start" x="148" y="-32.8" font-family="Times New Roman,serif" font-size="14.00">temperature :double</text>
<text text-anchor="start" x="148" y="-17.8" font-family="Times New Roman,serif" font-size="14.00">duration :int</text>
</g>
<!-- Incubate&#45;&gt;ProtocolStep -->
<g id="edge12" class="edge"><title>Incubate&#45;&gt;ProtocolStep</title>
<path fill="none" stroke="black" d="M212.885,-72.6055C218.253,-89.7683 224.892,-110.998 230.371,-128.517"/>
<polygon fill="none" stroke="black" points="227.119,-129.844 233.445,-138.343 233.8,-127.755 227.119,-129.844"/>
</g>
<!-- IncubateJob -->
<g id="node5" class="node"><title>IncubateJob</title>
<polygon fill="none" stroke="black" points="1077,-55 1077,-76 1209,-76 1209,-55 1077,-55"/>
<text text-anchor="start" x="1108.5" y="-61.8" font-family="Times New Roman,serif" font-size="14.00">IncubateJob</text>
<polygon fill="none" stroke="black" points="1077,-4 1077,-55 1209,-55 1209,-4 1077,-4"/>
<text text-anchor="start" x="1080" y="-40.8" font-family="Times New Roman,serif" font-size="14.00">temperature :double</text>
<text text-anchor="start" x="1080" y="-25.8" font-family="Times New Roman,serif" font-size="14.00">duration :int</text>
<text text-anchor="start" x="1080" y="-10.8" font-family="Times New Roman,serif" font-size="14.00">microplate :Microplate</text>
</g>
<!-- Job -->
<g id="node6" class="node"><title>Job</title>
<polygon fill="none" stroke="black" points="1130,-170.5 1130,-191.5 1282,-191.5 1282,-170.5 1130,-170.5"/>
<text text-anchor="start" x="1195.5" y="-177.3" font-family="Times New Roman,serif" font-size="14.00">Job</text>
<polygon fill="none" stroke="black" points="1130,-134.5 1130,-170.5 1282,-170.5 1282,-134.5 1130,-134.5"/>
<text text-anchor="start" x="1133" y="-156.3" font-family="Times New Roman,serif" font-size="14.00">state :String</text>
<text text-anchor="start" x="1133" y="-141.3" font-family="Times New Roman,serif" font-size="14.00">protocolStepName :String</text>
</g>
<!-- IncubateJob&#45;&gt;Job -->
<g id="edge13" class="edge"><title>IncubateJob&#45;&gt;Job</title>
<path fill="none" stroke="black" d="M1163.28,-80.1122C1170.18,-93.4142 1177.9,-108.308 1184.86,-121.736"/>
<polygon fill="none" stroke="black" points="1181.83,-123.494 1189.54,-130.761 1188.05,-120.272 1181.83,-123.494"/>
</g>
<!-- Job&#45;&gt;Job -->
<g id="edge8" class="edge"><title>Job&#45;&gt;Job</title>
<path fill="none" stroke="black" d="M1290.03,-144.438C1300.85,-147.744 1308,-154.098 1308,-163.5 1308,-172.902 1300.85,-179.256 1290.03,-182.562"/>
<text text-anchor="middle" x="1314.53" y="-171.362" font-family="Times New Roman,serif" font-size="14.00">previous</text>
<text text-anchor="middle" x="1302.03" y="-133.238" font-family="Times New Roman,serif" font-size="14.00">next</text>
</g>
<!-- JobCollection -->
<g id="node7" class="node"><title>JobCollection</title>
<polygon fill="none" stroke="black" points="959,-32 959,-53 1043,-53 1043,-32 959,-32"/>
<text text-anchor="start" x="962" y="-38.8" font-family="Times New Roman,serif" font-size="14.00">JobCollection</text>
<polygon fill="none" stroke="black" points="959,-26 959,-32 1043,-32 1043,-26 959,-26"/>
</g>
<!-- JobCollection&#45;&gt;Job -->
<g id="edge5" class="edge"><title>JobCollection&#45;&gt;Job</title>
<path fill="none" stroke="black" d="M1026.02,-58.0922C1036.42,-65.0548 1048.69,-73.0776 1060,-80 1088.56,-97.4776 1120.92,-115.901 1147.91,-130.893"/>
<text text-anchor="middle" x="1130.41" y="-119.693" font-family="Times New Roman,serif" font-size="14.00">jobs *</text>
<text text-anchor="middle" x="1026.02" y="-61.8922" font-family="Times New Roman,serif" font-size="14.00">jobCollection</text>
</g>
<!-- Labware -->
<g id="node9" class="node"><title>Labware</title>
<polygon fill="none" stroke="black" points="756,-163.5 756,-184.5 832,-184.5 832,-163.5 756,-163.5"/>
<text text-anchor="start" x="769.5" y="-170.3" font-family="Times New Roman,serif" font-size="14.00">Labware</text>
<polygon fill="none" stroke="black" points="756,-142.5 756,-163.5 832,-163.5 832,-142.5 756,-142.5"/>
<text text-anchor="start" x="759" y="-149.3" font-family="Times New Roman,serif" font-size="14.00">name :String</text>
</g>
<!-- JobCollection&#45;&gt;Labware -->
<g id="edge6" class="edge"><title>JobCollection&#45;&gt;Labware</title>
<path fill="none" stroke="black" d="M976.003,-58.1251C965.602,-65.0929 953.331,-73.1105 942,-80 908.067,-100.632 868.766,-122.446 839.194,-138.458"/>
<text text-anchor="middle" x="812.194" y="-127.258" font-family="Times New Roman,serif" font-size="14.00">labware *</text>
<text text-anchor="middle" x="938.003" y="-61.9251" font-family="Times New Roman,serif" font-size="14.00">jobCollection</text>
</g>
<!-- Sample -->
<g id="node14" class="node"><title>Sample</title>
<polygon fill="none" stroke="black" points="483,-286.5 483,-307.5 583,-307.5 583,-286.5 483,-286.5"/>
<text text-anchor="start" x="512" y="-293.3" font-family="Times New Roman,serif" font-size="14.00">Sample</text>
<polygon fill="none" stroke="black" points="483,-250.5 483,-286.5 583,-286.5 583,-250.5 483,-250.5"/>
<text text-anchor="start" x="486" y="-272.3" font-family="Times New Roman,serif" font-size="14.00">sampleID :String</text>
<text text-anchor="start" x="486" y="-257.3" font-family="Times New Roman,serif" font-size="14.00">state :String</text>
</g>
<!-- JobRequest&#45;&gt;Sample -->
<g id="edge7" class="edge"><title>JobRequest&#45;&gt;Sample</title>
<path fill="none" stroke="black" d="M533,-181.814C533,-199.005 533,-225.758 533,-246.768"/>
<text text-anchor="middle" x="505" y="-235.568" font-family="Times New Roman,serif" font-size="14.00">samples *</text>
<text text-anchor="middle" x="501" y="-185.614" font-family="Times New Roman,serif" font-size="14.00">jobRequest</text>
</g>
<!-- LiquidTransferJob -->
<g id="node10" class="node"><title>LiquidTransferJob</title>
<polygon fill="none" stroke="black" points="1409,-47 1409,-68 1519,-68 1519,-47 1409,-47"/>
<text text-anchor="start" x="1412" y="-53.8" font-family="Times New Roman,serif" font-size="14.00">LiquidTransferJob</text>
<polygon fill="none" stroke="black" points="1409,-11 1409,-47 1519,-47 1519,-11 1409,-11"/>
<text text-anchor="start" x="1417.5" y="-32.8" font-family="Times New Roman,serif" font-size="14.00">source :Labware</text>
<text text-anchor="start" x="1417.5" y="-17.8" font-family="Times New Roman,serif" font-size="14.00">target :Labware</text>
</g>
<!-- LiquidTransferJob&#45;&gt;Job -->
<g id="edge14" class="edge"><title>LiquidTransferJob&#45;&gt;Job</title>
<path fill="none" stroke="black" d="M1406.44,-72.6963C1401.58,-75.2147 1396.72,-77.6793 1392,-80 1359.11,-96.1718 1322.32,-112.787 1290.21,-126.83"/>
<polygon fill="none" stroke="black" points="1288.61,-123.707 1280.84,-130.91 1291.4,-130.125 1288.61,-123.707"/>
</g>
<!-- TipLiquidTransfer -->
<g id="node15" class="node"><title>TipLiquidTransfer</title>
<polygon fill="none" stroke="black" points="1398,-185.5 1398,-206.5 1530,-206.5 1530,-185.5 1398,-185.5"/>
<text text-anchor="start" x="1412.5" y="-192.3" font-family="Times New Roman,serif" font-size="14.00">TipLiquidTransfer</text>
<polygon fill="none" stroke="black" points="1398,-119.5 1398,-185.5 1530,-185.5 1530,-119.5 1398,-119.5"/>
<text text-anchor="start" x="1401" y="-171.3" font-family="Times New Roman,serif" font-size="14.00">sourceCavityIndex :int</text>
<text text-anchor="start" x="1401" y="-156.3" font-family="Times New Roman,serif" font-size="14.00">volume :double</text>
<text text-anchor="start" x="1401" y="-141.3" font-family="Times New Roman,serif" font-size="14.00">targetCavityIndex :int</text>
<text text-anchor="start" x="1401" y="-126.3" font-family="Times New Roman,serif" font-size="14.00">status :String</text>
</g>
<!-- LiquidTransferJob&#45;&gt;TipLiquidTransfer -->
<g id="edge4" class="edge"><title>LiquidTransferJob&#45;&gt;TipLiquidTransfer</title>
<path fill="none" stroke="black" d="M1464,-72.6055C1464,-85.8242 1464,-101.456 1464,-115.946"/>
<text text-anchor="middle" x="1448.5" y="-104.746" font-family="Times New Roman,serif" font-size="14.00">tips *</text>
<text text-anchor="middle" x="1454.5" y="-76.4055" font-family="Times New Roman,serif" font-size="14.00">job</text>
</g>
<!-- Microplate -->
<g id="node11" class="node"><title>Microplate</title>
<polygon fill="none" stroke="black" points="606,-32 606,-53 673,-53 673,-32 606,-32"/>
<text text-anchor="start" x="609" y="-38.8" font-family="Times New Roman,serif" font-size="14.00">Microplate</text>
<polygon fill="none" stroke="black" points="606,-26 606,-32 673,-32 673,-26 606,-26"/>
</g>
<!-- Microplate&#45;&gt;Labware -->
<g id="edge15" class="edge"><title>Microplate&#45;&gt;Labware</title>
<path fill="none" stroke="black" d="M660.879,-58.1503C685.288,-77.2836 725.254,-108.612 755.037,-131.958"/>
<polygon fill="none" stroke="black" points="753.116,-134.899 763.145,-138.314 757.434,-129.39 753.116,-134.899"/>
</g>
<!-- ProtocolStep&#45;&gt;ProtocolStep -->
<g id="edge9" class="edge"><title>ProtocolStep&#45;&gt;ProtocolStep</title>
<path fill="none" stroke="black" d="M289.714,-142.452C300.042,-144.59 307.5,-151.605 307.5,-163.5 307.5,-175.395 300.042,-182.41 289.714,-184.548"/>
<text text-anchor="middle" x="314.214" y="-173.348" font-family="Times New Roman,serif" font-size="14.00">previous</text>
<text text-anchor="middle" x="301.714" y="-131.252" font-family="Times New Roman,serif" font-size="14.00">next</text>
</g>
<!-- Trough -->
<g id="node16" class="node"><title>Trough</title>
<polygon fill="none" stroke="black" points="707,-32 707,-53 755,-53 755,-32 707,-32"/>
<text text-anchor="start" x="710" y="-38.8" font-family="Times New Roman,serif" font-size="14.00">Trough</text>
<polygon fill="none" stroke="black" points="707,-26 707,-32 755,-32 755,-26 707,-26"/>
</g>
<!-- Trough&#45;&gt;Labware -->
<g id="edge16" class="edge"><title>Trough&#45;&gt;Labware</title>
<path fill="none" stroke="black" d="M739.893,-58.1503C749.432,-76.5477 764.818,-106.221 776.749,-129.23"/>
<polygon fill="none" stroke="black" points="773.749,-131.047 781.459,-138.314 779.963,-127.825 773.749,-131.047"/>
</g>
<!-- TubeRunner -->
<g id="node17" class="node"><title>TubeRunner</title>
<polygon fill="none" stroke="black" points="789,-40 789,-61 925,-61 925,-40 789,-40"/>
<text text-anchor="start" x="822" y="-46.8" font-family="Times New Roman,serif" font-size="14.00">TubeRunner</text>
<polygon fill="none" stroke="black" points="789,-19 789,-40 925,-40 925,-19 789,-19"/>
<text text-anchor="start" x="792" y="-25.8" font-family="Times New Roman,serif" font-size="14.00">barcodes :List&lt;String&gt;</text>
</g>
<!-- TubeRunner&#45;&gt;Labware -->
<g id="edge17" class="edge"><title>TubeRunner&#45;&gt;Labware</title>
<path fill="none" stroke="black" d="M844.553,-65.0045C835.038,-83.3562 821.806,-108.874 811.267,-129.2"/>
<polygon fill="none" stroke="black" points="808.133,-127.641 806.637,-138.13 814.347,-130.863 808.133,-127.641"/>
</g>
<!-- Wash -->
<g id="node18" class="node"><title>Wash</title>
<polygon fill="none" stroke="black" points="296,-32 296,-53 335,-53 335,-32 296,-32"/>
<text text-anchor="start" x="299" y="-38.8" font-family="Times New Roman,serif" font-size="14.00">Wash</text>
<polygon fill="none" stroke="black" points="296,-26 296,-32 335,-32 335,-26 296,-26"/>
</g>
<!-- Wash&#45;&gt;ProtocolStep -->
<g id="edge18" class="edge"><title>Wash&#45;&gt;ProtocolStep</title>
<path fill="none" stroke="black" d="M304.555,-58.1503C293.3,-76.6295 275.116,-106.485 261.077,-129.536"/>
<polygon fill="none" stroke="black" points="257.943,-127.953 255.731,-138.314 263.922,-131.594 257.943,-127.953"/>
</g>
<!-- WashJob -->
<g id="node19" class="node"><title>WashJob</title>
<polygon fill="none" stroke="black" points="1243,-47 1243,-68 1375,-68 1375,-47 1243,-47"/>
<text text-anchor="start" x="1282.5" y="-53.8" font-family="Times New Roman,serif" font-size="14.00">WashJob</text>
<polygon fill="none" stroke="black" points="1243,-11 1243,-47 1375,-47 1375,-11 1243,-11"/>
<text text-anchor="start" x="1246" y="-32.8" font-family="Times New Roman,serif" font-size="14.00">cavities :List&lt;Integer&gt;</text>
<text text-anchor="start" x="1246" y="-17.8" font-family="Times New Roman,serif" font-size="14.00">microplate :Microplate</text>
</g>
<!-- WashJob&#45;&gt;Job -->
<g id="edge19" class="edge"><title>WashJob&#45;&gt;Job</title>
<path fill="none" stroke="black" d="M1282.21,-72.6055C1269.2,-87.9534 1253.43,-106.554 1239.62,-122.844"/>
<polygon fill="none" stroke="black" points="1236.81,-120.739 1233.02,-130.631 1242.15,-125.266 1236.81,-120.739"/>
</g>
</g>
</svg>
