<?xml version="1.0" encoding="UTF-8" standalone="no"?>
<svg
   xmlns:dc="http://purl.org/dc/elements/1.1/"
   xmlns:cc="http://creativecommons.org/ns#"
   xmlns:rdf="http://www.w3.org/1999/02/22-rdf-syntax-ns#"
   xmlns:svg="http://www.w3.org/2000/svg"
   xmlns="http://www.w3.org/2000/svg"
   xmlns:sodipodi="http://sodipodi.sourceforge.net/DTD/sodipodi-0.dtd"
   xmlns:inkscape="http://www.inkscape.org/namespaces/inkscape"
   version="1.1"
   viewBox="0.0 0.0 960.0 540.0"
   fill="none"
   stroke="none"
   stroke-linecap="square"
   stroke-miterlimit="10"
   id="svg5007"
   sodipodi:docname="The Fulib Solution to the TTC 2021 Laboratory Workflow Case.svg"
   inkscape:version="0.92.3 (2405546, 2018-03-11)">
  <metadata
     id="metadata5013">
    <rdf:RDF>
      <cc:Work
         rdf:about="">
        <dc:format>image/svg+xml</dc:format>
        <dc:type
           rdf:resource="http://purl.org/dc/dcmitype/StillImage" />
      </cc:Work>
    </rdf:RDF>
  </metadata>
  <defs
     id="defs5011" />
  <sodipodi:namedview
     pagecolor="#ffffff"
     bordercolor="#666666"
     borderopacity="1"
     objecttolerance="10"
     gridtolerance="10"
     guidetolerance="10"
     inkscape:pageopacity="0"
     inkscape:pageshadow="2"
     inkscape:window-width="1920"
     inkscape:window-height="1057"
     id="namedview5009"
     showgrid="false"
     inkscape:zoom="1.4583333"
     inkscape:cx="484.13264"
     inkscape:cy="310.88033"
     inkscape:window-x="3832"
     inkscape:window-y="-8"
     inkscape:window-maximized="1"
     inkscape:current-layer="svg5007" />
  <clipPath
     id="gd95814579e_0_2.0">
    <path
       d="m0 0l960.0 0l0 540.0l-960.0 0l0 -540.0z"
       clip-rule="nonzero"
       id="path4902" />
  </clipPath>
  <g
     id="g5657">
    <path
       d="M 40.929096,89.49869 H 188.45666 v 43.68504 H 40.929096 Z"
       id="path4907"
       inkscape:connector-curvature="0"
       style="fill:#ffffff;fill-rule:evenodd" />
    <path
       d="M 40.929096,89.49869 H 188.45666 v 43.68504 H 40.929096 Z"
       id="path4909"
       inkscape:connector-curvature="0"
       style="fill-rule:evenodd;stroke:#000000;stroke-width:1;stroke-linecap:butt;stroke-linejoin:round" />
    <path
       d="m 88.28663,113.5137 1.4375,-0.125 q 0.09375,0.85938 0.46875,1.42188 0.375,0.54687 1.15625,0.89062 0.78125,0.32813 1.75,0.32813 0.875,0 1.53125,-0.25 0.671875,-0.26563 0.984375,-0.70313 0.328125,-0.45312 0.328125,-0.98437 0,-0.54688 -0.3125,-0.9375 -0.3125,-0.40625 -1.03125,-0.6875 -0.453125,-0.17188 -2.03125,-0.54688 -1.578125,-0.39062 -2.21875,-0.71875 -0.8125,-0.4375 -1.21875,-1.0625 -0.40625,-0.64062 -0.40625,-1.4375 0,-0.85937 0.484375,-1.60937 0.5,-0.76563 1.4375,-1.15625 0.953125,-0.39063 2.109375,-0.39063 1.28125,0 2.25,0.42188 0.96875,0.40625 1.484375,1.20312 0.53125,0.79688 0.578125,1.79688 l -1.453125,0.10937 q -0.125,-1.07812 -0.796875,-1.625 -0.671875,-0.5625 -2,-0.5625 -1.375,0 -2,0.5 -0.625,0.5 -0.625,1.21875 0,0.60938 0.4375,1.01563 0.4375,0.39062 2.28125,0.8125 1.859375,0.42187 2.546875,0.73437 1,0.45313 1.46875,1.17188 0.484375,0.70312 0.484375,1.625 0,0.90625 -0.53125,1.71875 -0.515625,0.8125 -1.5,1.26562 -0.984375,0.45313 -2.203125,0.45313 -1.5625,0 -2.609375,-0.45313 -1.046875,-0.46875 -1.65625,-1.375 -0.59375,-0.90625 -0.625,-2.0625 z m 16.42188,2.65625 q -0.78125,0.67188 -1.5,0.95313 -0.71875,0.26562 -1.54688,0.26562 -1.375,0 -2.109375,-0.67187 -0.734375,-0.67188 -0.734375,-1.70313 0,-0.60937 0.28125,-1.10937 0.28125,-0.51563 0.71875,-0.8125 0.45313,-0.3125 1.01563,-0.46875 0.42187,-0.10938 1.25,-0.20313 1.70312,-0.20312 2.51562,-0.48437 0,-0.29688 0,-0.375 0,-0.85938 -0.39062,-1.20313 -0.54688,-0.48437 -1.60938,-0.48437 -0.98437,0 -1.46875,0.35937 -0.46875,0.34375 -0.6875,1.21875 l -1.375,-0.1875 q 0.1875,-0.875 0.609375,-1.42187 0.437505,-0.54688 1.250005,-0.82813 0.8125,-0.29687 1.875,-0.29687 1.0625,0 1.71875,0.25 0.67187,0.25 0.98437,0.625 0.3125,0.375 0.4375,0.95312 0.0781,0.35938 0.0781,1.29688 v 1.875 q 0,1.96875 0.0781,2.48437 0.0937,0.51563 0.35938,1 h -1.46875 q -0.21875,-0.4375 -0.28125,-1.03125 z m -0.10938,-3.14062 q -0.76562,0.3125 -2.29687,0.53125 -0.875,0.125 -1.23438,0.28125 -0.35937,0.15625 -0.5625,0.46875 -0.1875,0.29687 -0.1875,0.65625 0,0.5625 0.42188,0.9375 0.4375,0.375 1.25,0.375 0.8125,0 1.4375,-0.34375 0.64062,-0.35938 0.9375,-0.98438 0.23437,-0.46875 0.23437,-1.40625 z m 3.60156,4.17187 v -8.29687 h 1.25 v 1.15625 q 0.39063,-0.60938 1.03125,-0.96875 0.65625,-0.375 1.48438,-0.375 0.92187,0 1.51562,0.39062 0.59375,0.375 0.82813,1.0625 0.98437,-1.45312 2.5625,-1.45312 1.23437,0 1.89062,0.6875 0.67188,0.67187 0.67188,2.09375 v 5.70312 h -1.39063 v -5.23437 q 0,-0.84375 -0.14062,-1.20313 -0.14063,-0.375 -0.5,-0.59375 -0.35938,-0.23437 -0.84375,-0.23437 -0.875,0 -1.45313,0.57812 -0.57812,0.57813 -0.57812,1.85938 v 4.82812 h -1.40625 v -5.39062 q 0,-0.9375 -0.34375,-1.40625 -0.34375,-0.46875 -1.125,-0.46875 -0.59375,0 -1.09375,0.3125 -0.5,0.3125 -0.73438,0.92187 -0.21875,0.59375 -0.21875,1.71875 v 4.3125 z m 13.32813,3.1875 v -11.48437 h 1.28125 v 1.07812 q 0.45312,-0.64062 1.01562,-0.95312 0.57813,-0.3125 1.39063,-0.3125 1.0625,0 1.875,0.54687 0.8125,0.54688 1.21874,1.54688 0.42187,0.98437 0.42187,2.17187 0,1.28125 -0.46875,2.29688 -0.45311,1.01562 -1.32811,1.5625 -0.85938,0.54687 -1.82813,0.54687 -0.70312,0 -1.26562,-0.29687 -0.54688,-0.29688 -0.90625,-0.75 v 4.04687 z m 1.26562,-7.29687 q 0,1.60937 0.64063,2.375 0.65625,0.76562 1.57812,0.76562 0.9375,0 1.60938,-0.79687 0.67187,-0.79688 0.67187,-2.45313 0,-1.59375 -0.65625,-2.375 -0.65625,-0.79687 -1.5625,-0.79687 -0.89062,0 -1.59375,0.84375 -0.6875,0.84375 -0.6875,2.4375 z m 7.60156,4.10937 v -11.45312 h 1.40625 v 11.45312 z m 9.25781,-2.67187 1.45312,0.17187 q -0.34375,1.28125 -1.28125,1.98438 -0.92187,0.70312 -2.35937,0.70312 -1.82813,0 -2.89063,-1.125 -1.0625,-1.125 -1.0625,-3.14062 0,-2.09375 1.07813,-3.25 1.07812,-1.15625 2.79687,-1.15625 1.65625,0 2.70313,1.14062 1.0625,1.125 1.0625,3.17188 0,0.125 0,0.375 h -6.1875 q 0.0781,1.375 0.76562,2.10937 0.70313,0.71875 1.73438,0.71875 0.78125,0 1.32812,-0.40625 0.54688,-0.40625 0.85938,-1.29687 z m -4.60938,-2.28125 h 4.625 q -0.0937,-1.04688 -0.53125,-1.5625 -0.67187,-0.8125 -1.73437,-0.8125 -0.96875,0 -1.64063,0.65625 -0.65625,0.64062 -0.71875,1.71875 z"
       id="path4911"
       inkscape:connector-curvature="0"
       style="fill:#000000;fill-rule:nonzero" />
    <path
       d="M 40.929096,132.68805 H 188.45666 v 53.92126 H 40.929096 Z"
       id="path4913"
       inkscape:connector-curvature="0"
       style="fill:#ffffff;fill-rule:evenodd" />
    <path
       d="M 40.929096,132.68805 H 188.45666 v 53.92126 H 40.929096 Z"
       id="path4915"
       inkscape:connector-curvature="0"
       style="fill-rule:evenodd;stroke:#000000;stroke-width:1;stroke-linecap:butt;stroke-linejoin:round" />
    <path
       d="m 50.429096,154.56367 1.390625,-0.21875 q 0.109375,0.84375 0.640625,1.29687 0.546875,0.4375 1.5,0.4375 0.96875,0 1.4375,-0.39062 0.46875,-0.40625 0.46875,-0.9375 0,-0.46875 -0.40625,-0.75 -0.296875,-0.1875 -1.4375,-0.46875 -1.546875,-0.39063 -2.15625,-0.67188 -0.59375,-0.29687 -0.90625,-0.79687 -0.296875,-0.5 -0.296875,-1.10938 0,-0.5625 0.25,-1.03125 0.25,-0.46875 0.6875,-0.78125 0.328125,-0.25 0.890625,-0.40625 0.578125,-0.17187 1.21875,-0.17187 0.984375,0 1.71875,0.28125 0.734375,0.28125 1.078125,0.76562 0.359375,0.46875 0.5,1.28125 l -1.375,0.1875 q -0.09375,-0.64062 -0.546875,-1 -0.453125,-0.35937 -1.265625,-0.35937 -0.96875,0 -1.390625,0.32812 -0.40625,0.3125 -0.40625,0.73438 0,0.28125 0.171875,0.5 0.171875,0.21875 0.53125,0.375 0.21875,0.0781 1.25,0.35937 1.484375,0.39063 2.078125,0.65625 0.59375,0.25 0.921875,0.73438 0.34375,0.48437 0.34375,1.20312 0,0.70313 -0.421875,1.32813 -0.40625,0.60937 -1.1875,0.95312 -0.765625,0.34375 -1.734375,0.34375 -1.625,0 -2.46875,-0.67187 -0.84375,-0.67188 -1.078125,-2 z m 13.968754,1.45312 q -0.781254,0.67188 -1.500004,0.95313 -0.71875,0.26562 -1.546875,0.26562 -1.375,0 -2.109375,-0.67187 -0.734375,-0.67188 -0.734375,-1.70313 0,-0.60937 0.28125,-1.10937 0.28125,-0.51563 0.71875,-0.8125 0.453125,-0.3125 1.015625,-0.46875 0.421875,-0.10938 1.25,-0.20313 1.703125,-0.20312 2.515629,-0.48437 0,-0.29688 0,-0.375 0,-0.85938 -0.390629,-1.20313 -0.546875,-0.48437 -1.609375,-0.48437 -0.984375,0 -1.46875,0.35937 -0.46875,0.34375 -0.6875,1.21875 l -1.375,-0.1875 q 0.1875,-0.875 0.609375,-1.42187 0.4375,-0.54688 1.25,-0.82813 0.8125,-0.29687 1.875,-0.29687 1.0625,0 1.718754,0.25 0.671875,0.25 0.984375,0.625 0.3125,0.375 0.4375,0.95312 0.07813,0.35938 0.07813,1.29688 v 1.875 q 0,1.96875 0.07813,2.48437 0.09375,0.51563 0.359375,1 H 64.6791 q -0.21875,-0.4375 -0.28125,-1.03125 z m -0.109375,-3.14062 q -0.765629,0.3125 -2.296879,0.53125 -0.875,0.125 -1.234375,0.28125 -0.359375,0.15625 -0.5625,0.46875 -0.1875,0.29687 -0.1875,0.65625 0,0.5625 0.421875,0.9375 0.4375,0.375 1.25,0.375 0.8125,0 1.4375,-0.34375 0.640625,-0.35938 0.937504,-0.98438 0.234375,-0.46875 0.234375,-1.40625 z m 3.601563,4.17187 v -8.29687 h 1.25 v 1.15625 q 0.390625,-0.60938 1.03125,-0.96875 0.65625,-0.375 1.484375,-0.375 0.921875,0 1.515625,0.39062 0.59375,0.375 0.828125,1.0625 0.984375,-1.45312 2.5625,-1.45312 1.234375,0 1.890625,0.6875 0.671875,0.67187 0.671875,2.09375 v 5.70312 h -1.390625 v -5.23437 q 0,-0.84375 -0.140625,-1.20313 -0.140625,-0.375 -0.5,-0.59375 -0.359375,-0.23437 -0.84375,-0.23437 -0.875,0 -1.453125,0.57812 -0.578125,0.57813 -0.578125,1.85938 v 4.82812 h -1.40625 v -5.39062 q 0,-0.9375 -0.34375,-1.40625 -0.34375,-0.46875 -1.125,-0.46875 -0.59375,0 -1.09375,0.3125 -0.5,0.3125 -0.734375,0.92187 -0.21875,0.59375 -0.21875,1.71875 v 4.3125 z m 13.328125,3.1875 v -11.48437 h 1.28125 v 1.07812 q 0.453125,-0.64062 1.015625,-0.95312 0.578125,-0.3125 1.390625,-0.3125 1.0625,0 1.875,0.54687 0.8125,0.54688 1.21875,1.54688 0.421875,0.98437 0.421875,2.17187 0,1.28125 -0.46875,2.29688 -0.453125,1.01562 -1.328125,1.5625 -0.859375,0.54687 -1.828125,0.54687 -0.703125,0 -1.265625,-0.29687 -0.546875,-0.29688 -0.90625,-0.75 v 4.04687 z m 1.265625,-7.29687 q 0,1.60937 0.640625,2.375 0.65625,0.76562 1.578125,0.76562 0.9375,0 1.609375,-0.79687 0.671875,-0.79688 0.671875,-2.45313 0,-1.59375 -0.65625,-2.375 -0.65625,-0.79687 -1.5625,-0.79687 -0.890625,0 -1.59375,0.84375 -0.6875,0.84375 -0.6875,2.4375 z m 7.601562,4.10937 v -11.45312 h 1.40625 v 11.45312 z m 9.257813,-2.67187 1.453127,0.17187 q -0.34375,1.28125 -1.281252,1.98438 -0.921875,0.70312 -2.359375,0.70312 -1.828125,0 -2.890625,-1.125 -1.0625,-1.125 -1.0625,-3.14062 0,-2.09375 1.078125,-3.25 1.078125,-1.15625 2.796875,-1.15625 1.65625,0 2.703125,1.14062 1.062497,1.125 1.062497,3.17188 0,0.125 0,0.375 h -6.187497 q 0.07813,1.375 0.765625,2.10937 0.703125,0.71875 1.734375,0.71875 0.78125,0 1.328125,-0.40625 0.546875,-0.40625 0.859375,-1.29687 z m -4.609375,-2.28125 h 4.625 q -0.09375,-1.04688 -0.53125,-1.5625 -0.671875,-0.8125 -1.734375,-0.8125 -0.96875,0 -1.640625,0.65625 -0.65625,0.64062 -0.71875,1.71875 z m 8.273442,4.95312 v -11.45312 h 1.51562 v 11.45312 z m 9.38281,0 v -1.04687 q -0.78125,1.23437 -2.3125,1.23437 -1,0 -1.82813,-0.54687 -0.82812,-0.54688 -1.29687,-1.53125 -0.45313,-0.98438 -0.45313,-2.25 0,-1.25 0.40625,-2.25 0.42188,-1.01563 1.25,-1.54688 0.82813,-0.54687 1.85938,-0.54687 0.75,0 1.32812,0.3125 0.59375,0.3125 0.95313,0.82812 v -4.10937 h 1.40625 v 11.45312 z m -4.4375,-4.14062 q 0,1.59375 0.67187,2.39062 0.67188,0.78125 1.57813,0.78125 0.92187,0 1.5625,-0.75 0.65625,-0.76562 0.65625,-2.3125 0,-1.70312 -0.65625,-2.5 -0.65625,-0.79687 -1.625,-0.79687 -0.9375,0 -1.5625,0.76562 -0.625,0.76563 -0.625,2.42188 z m 8.35156,-2.5625 v -1.59375 h 1.59375 v 1.59375 z m 0,6.70312 v -1.60937 h 1.59375 v 1.60937 z m 8.15625,-3.6875 1.4375,-0.125 q 0.0937,0.85938 0.46875,1.42188 0.375,0.54687 1.15625,0.89062 0.78124,0.32813 1.74999,0.32813 0.875,0 1.53125,-0.25 0.67188,-0.26563 0.98438,-0.70313 0.32812,-0.45312 0.32812,-0.98437 0,-0.54688 -0.3125,-0.9375 -0.3125,-0.40625 -1.03125,-0.6875 -0.45312,-0.17188 -2.03125,-0.54688 -1.57811,-0.39062 -2.21874,-0.71875 -0.8125,-0.4375 -1.21875,-1.0625 -0.40625,-0.64062 -0.40625,-1.4375 0,-0.85937 0.48438,-1.60937 0.5,-0.76563 1.4375,-1.15625 0.95312,-0.39063 2.10936,-0.39063 1.28125,0 2.25,0.42188 0.96875,0.40625 1.48438,1.20312 0.53125,0.79688 0.57812,1.79688 l -1.45312,0.10937 q -0.125,-1.07812 -0.79688,-1.625 -0.67187,-0.5625 -2,-0.5625 -1.37499,0 -1.99999,0.5 -0.625,0.5 -0.625,1.21875 0,0.60938 0.4375,1.01563 0.4375,0.39062 2.28124,0.8125 1.85938,0.42187 2.54688,0.73437 1,0.45313 1.46875,1.17188 0.48437,0.70312 0.48437,1.625 0,0.90625 -0.53125,1.71875 -0.51562,0.8125 -1.5,1.26562 -0.98437,0.45313 -2.20312,0.45313 -1.56249,0 -2.60937,-0.45313 -1.04687,-0.46875 -1.65625,-1.375 -0.59375,-0.90625 -0.625,-2.0625 z m 14.07812,2.42188 0.20312,1.25 q -0.59375,0.125 -1.0625,0.125 -0.76562,0 -1.1875,-0.23438 -0.42187,-0.25 -0.59375,-0.64062 -0.17187,-0.40625 -0.17187,-1.67188 v -4.76562 h -1.03125 v -1.09375 h 1.03125 v -2.0625 l 1.40625,-0.84375 v 2.90625 h 1.40625 v 1.09375 h -1.40625 v 4.84375 q 0,0.60937 0.0625,0.78125 0.0781,0.17187 0.25,0.28125 0.17187,0.0937 0.48437,0.0937 0.23438,0 0.60938,-0.0625 z m 1.36718,1.26562 v -8.29687 h 1.26563 v 1.25 q 0.48437,-0.875 0.89062,-1.15625 0.40625,-0.28125 0.90625,-0.28125 0.70313,0 1.4375,0.45312 l -0.48437,1.29688 q -0.51563,-0.29688 -1.03125,-0.29688 -0.45313,0 -0.82813,0.28125 -0.35937,0.26563 -0.51562,0.76563 -0.23438,0.75 -0.23438,1.64062 v 4.34375 z m 5.34375,-9.84375 v -1.60937 h 1.40625 v 1.60937 z m 0,9.84375 v -8.29687 h 1.40625 v 8.29687 z m 3.55469,0 v -8.29687 h 1.26563 v 1.17187 q 0.90625,-1.35937 2.64062,-1.35937 0.75,0 1.375,0.26562 0.625,0.26563 0.9375,0.70313 0.3125,0.4375 0.4375,1.04687 0.0781,0.39063 0.0781,1.35938 v 5.10937 h -1.40625 v -5.04687 q 0,-0.85938 -0.17188,-1.28125 -0.15625,-0.4375 -0.57812,-0.6875 -0.40625,-0.25 -0.96875,-0.25 -0.90625,0 -1.5625,0.57812 -0.64063,0.5625 -0.64063,2.15625 v 4.53125 z m 8.63281,0.6875 1.375,0.20313 q 0.0781,0.64062 0.46875,0.92187 0.53125,0.39063 1.4375,0.39063 0.96875,0 1.5,-0.39063 0.53125,-0.39062 0.71875,-1.09375 0.10938,-0.42187 0.10938,-1.8125 -0.92188,1.09375 -2.29688,1.09375 -1.71875,0 -2.65625,-1.23437 -0.9375,-1.23438 -0.9375,-2.96875 0,-1.1875 0.42188,-2.1875 0.4375,-1 1.25,-1.54688 0.82812,-0.54687 1.92187,-0.54687 1.46875,0 2.42188,1.1875 v -1 h 1.29687 v 7.17187 q 0,1.9375 -0.39062,2.75 -0.39063,0.8125 -1.25,1.28125 -0.85938,0.46875 -2.10938,0.46875 -1.48437,0 -2.40625,-0.67187 -0.90625,-0.67188 -0.875,-2.01563 z m 1.17188,-4.98437 q 0,1.625 0.64062,2.375 0.65625,0.75 1.625,0.75 0.96875,0 1.625,-0.73438 0.65625,-0.75 0.65625,-2.34375 0,-1.53125 -0.67187,-2.29687 -0.67188,-0.78125 -1.625,-0.78125 -0.9375,0 -1.59375,0.76562 -0.65625,0.76563 -0.65625,2.26563 z"
       id="path4917"
       inkscape:connector-curvature="0"
       style="fill:#000000;fill-rule:nonzero" />
    <path
       d="m 50.429096,173.56367 1.390625,-0.21875 q 0.109375,0.84375 0.640625,1.29687 0.546875,0.4375 1.5,0.4375 0.96875,0 1.4375,-0.39062 0.46875,-0.40625 0.46875,-0.9375 0,-0.46875 -0.40625,-0.75 -0.296875,-0.1875 -1.4375,-0.46875 -1.546875,-0.39063 -2.15625,-0.67188 -0.59375,-0.29687 -0.90625,-0.79687 -0.296875,-0.5 -0.296875,-1.10938 0,-0.5625 0.25,-1.03125 0.25,-0.46875 0.6875,-0.78125 0.328125,-0.25 0.890625,-0.40625 0.578125,-0.17187 1.21875,-0.17187 0.984375,0 1.71875,0.28125 0.734375,0.28125 1.078125,0.76562 0.359375,0.46875 0.5,1.28125 l -1.375,0.1875 q -0.09375,-0.64062 -0.546875,-1 -0.453125,-0.35937 -1.265625,-0.35937 -0.96875,0 -1.390625,0.32812 -0.40625,0.3125 -0.40625,0.73438 0,0.28125 0.171875,0.5 0.171875,0.21875 0.53125,0.375 0.21875,0.0781 1.25,0.35937 1.484375,0.39063 2.078125,0.65625 0.59375,0.25 0.921875,0.73438 0.34375,0.48437 0.34375,1.20312 0,0.70313 -0.421875,1.32813 -0.40625,0.60937 -1.1875,0.95312 -0.765625,0.34375 -1.734375,0.34375 -1.625,0 -2.46875,-0.67187 -0.84375,-0.67188 -1.078125,-2 z m 11.625,1.21875 0.203125,1.25 q -0.59375,0.125 -1.0625,0.125 -0.765625,0 -1.1875,-0.23438 -0.421875,-0.25 -0.59375,-0.64062 -0.171875,-0.40625 -0.171875,-1.67188 v -4.76562 h -1.03125 v -1.09375 h 1.03125 v -2.0625 l 1.40625,-0.84375 v 2.90625 h 1.40625 v 1.09375 h -1.40625 v 4.84375 q 0,0.60937 0.0625,0.78125 0.07813,0.17187 0.25,0.28125 0.171875,0.0937 0.484375,0.0937 0.234375,0 0.609375,-0.0625 z m 6.789066,0.23437 q -0.78125,0.67188 -1.5,0.95313 -0.71875,0.26562 -1.546875,0.26562 -1.375,0 -2.109379,-0.67187 -0.734375,-0.67188 -0.734375,-1.70313 0,-0.60937 0.28125,-1.10937 0.28125,-0.51563 0.71875,-0.8125 0.453129,-0.3125 1.015629,-0.46875 0.421875,-0.10938 1.25,-0.20313 1.703125,-0.20312 2.515625,-0.48437 0,-0.29688 0,-0.375 0,-0.85938 -0.390625,-1.20313 -0.546875,-0.48437 -1.609375,-0.48437 -0.984375,0 -1.46875,0.35937 -0.46875,0.34375 -0.6875,1.21875 l -1.375004,-0.1875 q 0.1875,-0.875 0.609375,-1.42187 0.437504,-0.54688 1.250004,-0.82813 0.8125,-0.29687 1.875,-0.29687 1.0625,0 1.71875,0.25 0.671875,0.25 0.984375,0.625 0.3125,0.375 0.4375,0.95312 0.07813,0.35938 0.07813,1.29688 v 1.875 q 0,1.96875 0.07813,2.48437 0.09375,0.51563 0.359375,1 h -1.46875 q -0.21875,-0.4375 -0.28125,-1.03125 z m -0.109375,-3.14062 q -0.765625,0.3125 -2.296875,0.53125 -0.875,0.125 -1.234375,0.28125 -0.359375,0.15625 -0.5625,0.46875 -0.1875,0.29687 -0.1875,0.65625 0,0.5625 0.421875,0.9375 0.4375,0.375 1.25,0.375 0.8125,0 1.4375,-0.34375 0.640625,-0.35938 0.9375,-0.98438 0.234375,-0.46875 0.234375,-1.40625 z m 6.664063,2.90625 0.203125,1.25 q -0.59375,0.125 -1.0625,0.125 -0.765625,0 -1.1875,-0.23438 -0.421875,-0.25 -0.59375,-0.64062 -0.171875,-0.40625 -0.171875,-1.67188 v -4.76562 H 71.5541 v -1.09375 h 1.03125 v -2.0625 l 1.40625,-0.84375 v 2.90625 h 1.40625 v 1.09375 H 73.9916 v 4.84375 q 0,0.60937 0.0625,0.78125 0.07813,0.17187 0.25,0.28125 0.171875,0.0937 0.484375,0.0937 0.234375,0 0.609375,-0.0625 z m 7.054687,-1.40625 1.453125,0.17187 q -0.34375,1.28125 -1.28125,1.98438 -0.921875,0.70312 -2.359375,0.70312 -1.828125,0 -2.890625,-1.125 -1.0625,-1.125 -1.0625,-3.14062 0,-2.09375 1.078125,-3.25 1.078125,-1.15625 2.796875,-1.15625 1.65625,0 2.703125,1.14062 1.0625,1.125 1.0625,3.17188 0,0.125 0,0.375 h -6.1875 q 0.07813,1.375 0.765625,2.10937 0.703125,0.71875 1.734375,0.71875 0.78125,0 1.328125,-0.40625 0.546875,-0.40625 0.859375,-1.29687 z m -4.609375,-2.28125 h 4.625 q -0.09375,-1.04688 -0.53125,-1.5625 -0.671875,-0.8125 -1.734375,-0.8125 -0.96875,0 -1.640625,0.65625 -0.65625,0.64062 -0.71875,1.71875 z m 8.226563,-1.75 v -1.59375 h 1.59375 v 1.59375 z m 0,6.70312 v -1.60937 h 1.59375 v 1.60937 z m 8.15625,-3.6875 1.4375,-0.125 q 0.09375,0.85938 0.46875,1.42188 0.375,0.54687 1.15625,0.89062 0.78125,0.32813 1.75,0.32813 0.875,0 1.531245,-0.25 0.67188,-0.26563 0.98438,-0.70313 0.32812,-0.45312 0.32812,-0.98437 0,-0.54688 -0.3125,-0.9375 -0.3125,-0.40625 -1.03125,-0.6875 -0.45312,-0.17188 -2.031245,-0.54688 -1.578125,-0.39062 -2.21875,-0.71875 -0.8125,-0.4375 -1.21875,-1.0625 -0.40625,-0.64062 -0.40625,-1.4375 0,-0.85937 0.484375,-1.60937 0.5,-0.76563 1.4375,-1.15625 0.953125,-0.39063 2.109375,-0.39063 1.28125,0 2.249995,0.42188 0.96875,0.40625 1.48438,1.20312 0.53125,0.79688 0.57812,1.79688 l -1.45312,0.10937 q -0.125,-1.07812 -0.79688,-1.625 -0.67187,-0.5625 -1.999995,-0.5625 -1.375,0 -2,0.5 -0.625,0.5 -0.625,1.21875 0,0.60938 0.4375,1.01563 0.4375,0.39062 2.28125,0.8125 1.859375,0.42187 2.546875,0.73437 1,0.45313 1.46875,1.17188 0.48437,0.70312 0.48437,1.625 0,0.90625 -0.53125,1.71875 -0.51562,0.8125 -1.5,1.26562 -0.98437,0.45313 -2.20312,0.45313 -1.5625,0 -2.609375,-0.45313 -1.046875,-0.46875 -1.65625,-1.375 -0.59375,-0.90625 -0.625,-2.0625 z m 14.078125,2.42188 0.20312,1.25 q -0.59375,0.125 -1.0625,0.125 -0.76562,0 -1.1875,-0.23438 -0.42187,-0.25 -0.59375,-0.64062 -0.17187,-0.40625 -0.17187,-1.67188 v -4.76562 h -1.03125 v -1.09375 h 1.03125 v -2.0625 l 1.40625,-0.84375 v 2.90625 h 1.40625 v 1.09375 h -1.40625 v 4.84375 q 0,0.60937 0.0625,0.78125 0.0781,0.17187 0.25,0.28125 0.17187,0.0937 0.48437,0.0937 0.23438,0 0.60938,-0.0625 z m 1.36719,1.26562 v -8.29687 h 1.26562 v 1.25 q 0.48438,-0.875 0.89063,-1.15625 0.40625,-0.28125 0.90625,-0.28125 0.70312,0 1.4375,0.45312 l -0.48438,1.29688 q -0.51562,-0.29688 -1.03125,-0.29688 -0.45312,0 -0.82812,0.28125 -0.35938,0.26563 -0.51563,0.76563 -0.23437,0.75 -0.23437,1.64062 v 4.34375 z m 5.34375,-9.84375 v -1.60937 h 1.40625 v 1.60937 z m 0,9.84375 v -8.29687 h 1.40625 v 8.29687 z m 3.55468,0 v -8.29687 h 1.26563 v 1.17187 q 0.90625,-1.35937 2.64062,-1.35937 0.75,0 1.375,0.26562 0.625,0.26563 0.9375,0.70313 0.3125,0.4375 0.4375,1.04687 0.0781,0.39063 0.0781,1.35938 v 5.10937 h -1.40625 v -5.04687 q 0,-0.85938 -0.17188,-1.28125 -0.15625,-0.4375 -0.57812,-0.6875 -0.40625,-0.25 -0.96875,-0.25 -0.90625,0 -1.5625,0.57812 -0.64063,0.5625 -0.64063,2.15625 v 4.53125 z m 8.63282,0.6875 1.37499,0.20313 q 0.0781,0.64062 0.46875,0.92187 0.53125,0.39063 1.4375,0.39063 0.96875,0 1.5,-0.39063 0.53125,-0.39062 0.71875,-1.09375 0.10937,-0.42187 0.10937,-1.8125 -0.92187,1.09375 -2.29687,1.09375 -1.71875,0 -2.65624,-1.23437 -0.9375,-1.23438 -0.9375,-2.96875 0,-1.1875 0.42187,-2.1875 0.4375,-1 1.24999,-1.54688 0.82813,-0.54687 1.92188,-0.54687 1.46875,0 2.42187,1.1875 v -1 h 1.29688 v 7.17187 q 0,1.9375 -0.39063,2.75 -0.39062,0.8125 -1.25,1.28125 -0.85937,0.46875 -2.10937,0.46875 -1.48438,0 -2.40625,-0.67187 -0.90624,-0.67188 -0.87499,-2.01563 z m 1.17186,-4.98437 q 0,1.625 0.64063,2.375 0.65625,0.75 1.625,0.75 0.96875,0 1.625,-0.73438 0.65625,-0.75 0.65625,-2.34375 0,-1.53125 -0.67188,-2.29687 -0.67187,-0.78125 -1.625,-0.78125 -0.9375,0 -1.59375,0.76562 -0.65625,0.76563 -0.65625,2.26563 z"
       id="path4919"
       inkscape:connector-curvature="0"
       style="fill:#000000;fill-rule:nonzero" />
    <path
       d="m 328.9291,65.49869 h 147.52756 v 43.68504 H 328.9291 Z"
       id="path4921"
       inkscape:connector-curvature="0"
       style="fill:#ffffff;fill-rule:evenodd" />
    <path
       d="m 328.9291,65.49869 h 147.52756 v 43.68504 H 328.9291 Z"
       id="path4923"
       inkscape:connector-curvature="0"
       style="fill-rule:evenodd;stroke:#000000;stroke-width:1;stroke-linecap:butt;stroke-linejoin:round" />
    <path
       d="M 345.19287,93.2012 V 83.091825 h -3.78125 v -1.34375 h 9.07813 v 1.34375 H 346.7085 V 93.2012 Z m 6.08594,-9.84375 v -1.609375 h 1.40625 v 1.609375 z m 0,9.84375 v -8.296875 h 1.40625 V 93.2012 Z m 3.55469,3.1875 V 84.904325 h 1.28125 v 1.078125 q 0.45312,-0.640625 1.01562,-0.953125 0.57813,-0.3125 1.39063,-0.3125 1.0625,0 1.875,0.546875 0.8125,0.546875 1.21875,1.546875 0.42187,0.984375 0.42187,2.171875 0,1.28125 -0.46875,2.296875 -0.45312,1.015625 -1.32812,1.5625 -0.85938,0.546875 -1.82813,0.546875 -0.70312,0 -1.26562,-0.296875 -0.54688,-0.296875 -0.90625,-0.75 V 96.3887 Z m 1.26562,-7.296875 q 0,1.609375 0.64063,2.375 0.65625,0.765625 1.57812,0.765625 0.9375,0 1.60938,-0.796875 0.67187,-0.796875 0.67187,-2.453125 0,-1.59375 -0.65625,-2.375 -0.65625,-0.796875 -1.5625,-0.796875 -0.89062,0 -1.59375,0.84375 -0.6875,0.84375 -0.6875,2.4375 z m 7.74219,4.109375 V 81.748075 h 1.51562 v 10.09375 h 5.64063 V 93.2012 Z m 8.78906,-9.84375 v -1.609375 h 1.40625 v 1.609375 z m 0,9.84375 v -8.296875 h 1.40625 V 93.2012 Z m 8.83594,3.1875 v -4.078125 q -0.32813,0.46875 -0.92188,0.78125 -0.57812,0.296875 -1.25,0.296875 -1.46875,0 -2.54687,-1.171875 -1.0625,-1.1875 -1.0625,-3.25 0,-1.25 0.4375,-2.234375 0.4375,-1 1.25,-1.5 0.82812,-0.515625 1.8125,-0.515625 1.54687,0 2.42187,1.296875 v -1.109375 h 1.26563 V 96.3887 Z m -4.32813,-7.359375 q 0,1.59375 0.67188,2.40625 0.67187,0.796875 1.60937,0.796875 0.89063,0 1.53125,-0.765625 0.65625,-0.765625 0.65625,-2.3125 0,-1.65625 -0.6875,-2.484375 -0.67187,-0.84375 -1.59375,-0.84375 -0.92187,0 -1.5625,0.78125 -0.625,0.765625 -0.625,2.421875 z M 390.521,93.2012 v -1.21875 q -0.96875,1.40625 -2.64063,1.40625 -0.73437,0 -1.375,-0.28125 -0.625,-0.28125 -0.9375,-0.703125 -0.3125,-0.4375 -0.4375,-1.046875 -0.0781,-0.421875 -0.0781,-1.3125 v -5.140625 h 1.40625 v 4.59375 q 0,1.109375 0.0781,1.484375 0.14063,0.5625 0.5625,0.875 0.4375,0.3125 1.0625,0.3125 0.64063,0 1.1875,-0.3125 0.5625,-0.328125 0.78125,-0.890625 0.23438,-0.5625 0.23438,-1.625 v -4.4375 H 391.771 V 93.2012 Z m 3.46093,-9.84375 v -1.609375 h 1.40625 v 1.609375 z m 0,9.84375 v -8.296875 h 1.40625 V 93.2012 Z m 8.92969,0 v -1.046875 q -0.78125,1.234375 -2.3125,1.234375 -1,0 -1.82812,-0.546875 -0.82813,-0.546875 -1.29688,-1.53125 -0.45312,-0.984375 -0.45312,-2.25 0,-1.25 0.40625,-2.25 0.42187,-1.015625 1.25,-1.546875 0.82812,-0.546875 1.85937,-0.546875 0.75,0 1.32813,0.3125 0.59375,0.3125 0.95312,0.828125 v -4.109375 h 1.40625 V 93.2012 Z m -4.4375,-4.140625 q 0,1.59375 0.67188,2.390625 0.67187,0.78125 1.57812,0.78125 0.92188,0 1.5625,-0.75 0.65625,-0.765625 0.65625,-2.3125 0,-1.703125 -0.65625,-2.5 -0.65625,-0.796875 -1.625,-0.796875 -0.9375,0 -1.5625,0.765625 -0.625,0.765625 -0.625,2.421875 z M 409.52881,93.2012 V 83.091825 h -3.78125 v -1.34375 h 9.07812 v 1.34375 h -3.78125 V 93.2012 Z m 6.07031,0 v -8.296875 h 1.26563 v 1.25 q 0.48437,-0.875 0.89062,-1.15625 0.40625,-0.28125 0.90625,-0.28125 0.70313,0 1.4375,0.453125 l -0.48437,1.296875 q -0.51563,-0.296875 -1.03125,-0.296875 -0.45313,0 -0.82813,0.28125 -0.35937,0.265625 -0.51562,0.765625 -0.23438,0.75 -0.23438,1.640625 v 4.34375 z m 10.75,-1.03125 q -0.78125,0.671875 -1.5,0.953125 -0.71875,0.265625 -1.54687,0.265625 -1.375,0 -2.10938,-0.671875 -0.73437,-0.671875 -0.73437,-1.703125 0,-0.609375 0.28125,-1.109375 0.28125,-0.515625 0.71875,-0.8125 0.45312,-0.3125 1.01562,-0.46875 0.42188,-0.109375 1.25,-0.203125 1.70313,-0.203125 2.51563,-0.484375 0,-0.296875 0,-0.375 0,-0.859375 -0.39063,-1.203125 -0.54687,-0.484375 -1.60937,-0.484375 -0.98438,0 -1.46875,0.359375 -0.46875,0.34375 -0.6875,1.21875 l -1.375,-0.1875 q 0.1875,-0.875 0.60937,-1.421875 0.4375,-0.546875 1.25,-0.828125 0.8125,-0.296875 1.875,-0.296875 1.0625,0 1.71875,0.25 0.67188,0.25 0.98438,0.625 0.3125,0.375 0.4375,0.953125 0.0781,0.359375 0.0781,1.296875 v 1.875 q 0,1.96875 0.0781,2.484375 0.0937,0.515625 0.35937,1 h -1.46875 q -0.21875,-0.4375 -0.28125,-1.03125 z m -0.10937,-3.140625 q -0.76563,0.3125 -2.29688,0.53125 -0.875,0.125 -1.23437,0.28125 -0.35938,0.15625 -0.5625,0.46875 -0.1875,0.296875 -0.1875,0.65625 0,0.5625 0.42187,0.9375 0.4375,0.375 1.25,0.375 0.8125,0 1.4375,-0.34375 0.64063,-0.359375 0.9375,-0.984375 0.23438,-0.46875 0.23438,-1.40625 z m 3.60156,4.171875 v -8.296875 h 1.26562 V 86.0762 q 0.90625,-1.359375 2.64063,-1.359375 0.75,0 1.375,0.265625 0.625,0.265625 0.9375,0.703125 0.3125,0.4375 0.4375,1.046875 0.0781,0.390625 0.0781,1.359375 V 93.2012 h -1.40625 v -5.046875 q 0,-0.859375 -0.17187,-1.28125 -0.15625,-0.4375 -0.57813,-0.6875 -0.40625,-0.25 -0.96875,-0.25 -0.90625,0 -1.5625,0.578125 -0.64062,0.5625 -0.64062,2.15625 v 4.53125 z m 8.33594,-2.484375 1.39062,-0.21875 q 0.10938,0.84375 0.64063,1.296875 0.54687,0.4375 1.5,0.4375 0.96875,0 1.4375,-0.390625 0.46875,-0.40625 0.46875,-0.9375 0,-0.46875 -0.40625,-0.75 -0.29688,-0.1875 -1.4375,-0.46875 -1.54688,-0.390625 -2.15625,-0.671875 -0.59375,-0.296875 -0.90625,-0.796875 -0.29688,-0.5 -0.29688,-1.109375 0,-0.5625 0.25,-1.03125 0.25,-0.46875 0.6875,-0.78125 0.32813,-0.25 0.89063,-0.40625 0.57812,-0.171875 1.21875,-0.171875 0.98437,0 1.71875,0.28125 0.73437,0.28125 1.07812,0.765625 0.35938,0.46875 0.5,1.28125 l -1.375,0.1875 q -0.0937,-0.640625 -0.54687,-1 -0.45313,-0.359375 -1.26563,-0.359375 -0.96875,0 -1.39062,0.328125 -0.40625,0.3125 -0.40625,0.734375 0,0.28125 0.17187,0.5 0.17188,0.21875 0.53125,0.375 0.21875,0.07813 1.25,0.359375 1.48438,0.390625 2.07813,0.65625 0.59375,0.25 0.92187,0.734375 0.34375,0.484375 0.34375,1.203125 0,0.703125 -0.42187,1.328125 -0.40625,0.609375 -1.1875,0.953125 -0.76563,0.34375 -1.73438,0.34375 -1.625,0 -2.46875,-0.671875 -0.84375,-0.671875 -1.07812,-2 z m 8.89062,2.484375 v -7.203125 h -1.23437 v -1.09375 h 1.23437 V 84.0137 q 0,-0.828125 0.15625,-1.234375 0.20313,-0.546875 0.70313,-0.890625 0.51562,-0.34375 1.4375,-0.34375 0.59375,0 1.3125,0.140625 l -0.20313,1.234375 q -0.4375,-0.07813 -0.82812,-0.07813 -0.64063,0 -0.90625,0.28125 -0.26563,0.265625 -0.26563,1.015625 v 0.765625 h 1.60938 v 1.09375 h -1.60938 v 7.20313 z m 9.78906,-2.671875 1.45313,0.171875 q -0.34375,1.28125 -1.28125,1.984375 -0.92188,0.703125 -2.35938,0.703125 -1.82812,0 -2.89062,-1.125 -1.0625,-1.125 -1.0625,-3.140625 0,-2.09375 1.07812,-3.25 1.07813,-1.15625 2.79688,-1.15625 1.65625,0 2.70312,1.140625 1.0625,1.125 1.0625,3.171875 0,0.125 0,0.375 h -6.1875 q 0.0781,1.375 0.76563,2.109375 0.70312,0.71875 1.73437,0.71875 0.78125,0 1.32813,-0.40625 0.54687,-0.40625 0.85937,-1.296875 z m -4.60937,-2.28125 h 4.625 q -0.0937,-1.046875 -0.53125,-1.5625 -0.67188,-0.8125 -1.73438,-0.8125 -0.96875,0 -1.64062,0.65625 -0.65625,0.640625 -0.71875,1.71875 z m 7.82031,4.953125 v -8.296875 h 1.26563 v 1.25 q 0.48437,-0.875 0.89062,-1.15625 0.40625,-0.28125 0.90625,-0.28125 0.70313,0 1.4375,0.453125 l -0.48437,1.296875 q -0.51563,-0.296875 -1.03125,-0.296875 -0.45313,0 -0.82813,0.28125 -0.35937,0.265625 -0.51562,0.765625 -0.23438,0.75 -0.23438,1.640625 v 4.34375 z"
       id="path4925"
       inkscape:connector-curvature="0"
       style="fill:#000000;fill-rule:nonzero" />
    <path
       d="m 328.9291,137.49869 h 147.52756 v 43.68504 H 328.9291 Z"
       id="path4927"
       inkscape:connector-curvature="0"
       style="fill:#ffffff;fill-rule:evenodd" />
    <path
       d="m 328.9291,137.49869 h 147.52756 v 43.68504 H 328.9291 Z"
       id="path4929"
       inkscape:connector-curvature="0"
       style="fill-rule:evenodd;stroke:#000000;stroke-width:1;stroke-linecap:butt;stroke-linejoin:round" />
    <path
       d="m 366.97803,165.2012 v -11.45313 h 2.28125 l 2.71875,8.10938 q 0.375,1.125 0.54687,1.6875 0.1875,-0.625 0.60938,-1.82813 l 2.73437,-7.96875 h 2.04688 v 11.45313 h -1.46875 v -9.59375 l -3.32813,9.59375 h -1.35937 l -3.3125,-9.75 v 9.75 z m 13.20312,-9.84375 v -1.60938 h 1.40625 v 1.60938 z m 0,9.84375 v -8.29688 h 1.40625 v 8.29688 z m 8.96094,-3.04688 1.39063,0.1875 q -0.23438,1.42188 -1.17188,2.23438 -0.92187,0.8125 -2.28125,0.8125 -1.70312,0 -2.75,-1.10938 -1.03125,-1.125 -1.03125,-3.20312 0,-1.34375 0.4375,-2.34375 0.45313,-1.01563 1.35938,-1.51563 0.92187,-0.5 1.98437,-0.5 1.35938,0 2.21875,0.6875 0.85938,0.67188 1.09375,1.9375 l -1.35937,0.20313 q -0.20313,-0.82813 -0.70313,-1.25 -0.48437,-0.42188 -1.1875,-0.42188 -1.0625,0 -1.73437,0.76563 -0.65625,0.75 -0.65625,2.40625 0,1.67187 0.64062,2.4375 0.64063,0.75 1.67188,0.75 0.82812,0 1.375,-0.5 0.5625,-0.51563 0.70312,-1.57813 z m 2.57813,3.04688 v -8.29688 h 1.26562 v 1.25 q 0.48438,-0.875 0.89063,-1.15625 0.40625,-0.28125 0.90625,-0.28125 0.70312,0 1.4375,0.45313 l -0.48438,1.29687 q -0.51562,-0.29687 -1.03125,-0.29687 -0.45312,0 -0.82812,0.28125 -0.35938,0.26562 -0.51563,0.76562 -0.23437,0.75 -0.23437,1.64063 v 4.34375 z m 4.8125,-4.15625 q 0,-2.29688 1.28125,-3.40625 1.07812,-0.92188 2.60937,-0.92188 1.71875,0 2.79688,1.125 1.09375,1.10938 1.09375,3.09375 0,1.59375 -0.48438,2.51563 -0.48437,0.92187 -1.40625,1.4375 -0.90625,0.5 -2,0.5 -1.73437,0 -2.8125,-1.10938 -1.07812,-1.125 -1.07812,-3.23437 z m 1.45312,0 q 0,1.59375 0.6875,2.39062 0.70313,0.79688 1.75,0.79688 1.04688,0 1.73438,-0.79688 0.70312,-0.79687 0.70312,-2.4375 0,-1.53125 -0.70312,-2.32812 -0.6875,-0.79688 -1.73438,-0.79688 -1.04687,0 -1.75,0.79688 -0.6875,0.78125 -0.6875,2.375 z m 7.97656,7.34375 v -11.48438 h 1.28125 v 1.07813 q 0.45313,-0.64063 1.01563,-0.95313 0.57812,-0.3125 1.39062,-0.3125 1.0625,0 1.875,0.54688 0.8125,0.54687 1.21875,1.54687 0.42188,0.98438 0.42188,2.17188 0,1.28125 -0.46875,2.29687 -0.45313,1.01563 -1.32813,1.5625 -0.85937,0.54688 -1.82812,0.54688 -0.70313,0 -1.26563,-0.29688 -0.54687,-0.29687 -0.90625,-0.75 v 4.04688 z m 1.26563,-7.29688 q 0,1.60938 0.64062,2.375 0.65625,0.76563 1.57813,0.76563 0.9375,0 1.60937,-0.79688 0.67188,-0.79687 0.67188,-2.45312 0,-1.59375 -0.65625,-2.375 -0.65625,-0.79688 -1.5625,-0.79688 -0.89063,0 -1.59375,0.84375 -0.6875,0.84375 -0.6875,2.4375 z m 7.60156,4.10938 v -11.45313 h 1.40625 v 11.45313 z m 8.99219,-1.03125 q -0.78125,0.67187 -1.5,0.95312 -0.71875,0.26563 -1.54688,0.26563 -1.375,0 -2.10937,-0.67188 -0.73438,-0.67187 -0.73438,-1.70312 0,-0.60938 0.28125,-1.10938 0.28125,-0.51562 0.71875,-0.8125 0.45313,-0.3125 1.01563,-0.46875 0.42187,-0.10937 1.25,-0.20312 1.70312,-0.20313 2.51562,-0.48438 0,-0.29687 0,-0.375 0,-0.85937 -0.39062,-1.20312 -0.54688,-0.48438 -1.60938,-0.48438 -0.98437,0 -1.46875,0.35938 -0.46875,0.34375 -0.6875,1.21875 l -1.375,-0.1875 q 0.1875,-0.875 0.60938,-1.42188 0.4375,-0.54687 1.25,-0.82812 0.8125,-0.29688 1.875,-0.29688 1.0625,0 1.71875,0.25 0.67187,0.25 0.98437,0.625 0.3125,0.375 0.4375,0.95313 0.0781,0.35937 0.0781,1.29687 v 1.875 q 0,1.96875 0.0781,2.48438 0.0937,0.51562 0.35938,1 h -1.46875 q -0.21875,-0.4375 -0.28125,-1.03125 z m -0.10938,-3.14063 q -0.76562,0.3125 -2.29687,0.53125 -0.875,0.125 -1.23438,0.28125 -0.35937,0.15625 -0.5625,0.46875 -0.1875,0.29688 -0.1875,0.65625 0,0.5625 0.42188,0.9375 0.4375,0.375 1.25,0.375 0.8125,0 1.4375,-0.34375 0.64062,-0.35937 0.9375,-0.98437 0.23437,-0.46875 0.23437,-1.40625 z m 6.66407,2.90625 0.20312,1.25 q -0.59375,0.125 -1.0625,0.125 -0.76562,0 -1.1875,-0.23437 -0.42187,-0.25 -0.59375,-0.64063 -0.17187,-0.40625 -0.17187,-1.67187 v -4.76563 h -1.03125 v -1.09375 h 1.03125 v -2.0625 l 1.40625,-0.84375 v 2.90625 h 1.40625 v 1.09375 h -1.40625 v 4.84375 q 0,0.60938 0.0625,0.78125 0.0781,0.17188 0.25,0.28125 0.17187,0.0937 0.48437,0.0937 0.23438,0 0.60938,-0.0625 z m 7.05468,-1.40625 1.45313,0.17188 q -0.34375,1.28125 -1.28125,1.98437 -0.92188,0.70313 -2.35938,0.70313 -1.82812,0 -2.89062,-1.125 -1.0625,-1.125 -1.0625,-3.14063 0,-2.09375 1.07812,-3.25 1.07813,-1.15625 2.79688,-1.15625 1.65625,0 2.70312,1.14063 1.0625,1.125 1.0625,3.17187 0,0.125 0,0.375 h -6.1875 q 0.0781,1.375 0.76563,2.10938 0.70312,0.71875 1.73437,0.71875 0.78125,0 1.32813,-0.40625 0.54687,-0.40625 0.85937,-1.29688 z m -4.60937,-2.28125 h 4.625 q -0.0937,-1.04687 -0.53125,-1.5625 -0.67188,-0.8125 -1.73438,-0.8125 -0.96875,0 -1.64062,0.65625 -0.65625,0.64063 -0.71875,1.71875 z"
       id="path4931"
       inkscape:connector-curvature="0"
       style="fill:#000000;fill-rule:nonzero" />
    <path
       d="m 328.9291,201.49869 h 147.52756 v 43.68504 H 328.9291 Z"
       id="path4933"
       inkscape:connector-curvature="0"
       style="fill:#ffffff;fill-rule:evenodd" />
    <path
       d="m 328.9291,201.49869 h 147.52756 v 43.68504 H 328.9291 Z"
       id="path4935"
       inkscape:connector-curvature="0"
       style="fill-rule:evenodd;stroke:#000000;stroke-width:1;stroke-linecap:butt;stroke-linejoin:round" />
    <path
       d="m 362.67334,229.2012 v -10.10938 h -3.78125 v -1.34375 h 9.07812 v 1.34375 h -3.78125 v 10.10938 z m 11.52344,0 v -1.21875 q -0.96875,1.40625 -2.64063,1.40625 -0.73437,0 -1.375,-0.28125 -0.625,-0.28125 -0.9375,-0.70313 -0.3125,-0.4375 -0.4375,-1.04687 -0.0781,-0.42188 -0.0781,-1.3125 v -5.14063 h 1.40625 v 4.59375 q 0,1.10938 0.0781,1.48438 0.14063,0.5625 0.5625,0.875 0.4375,0.3125 1.0625,0.3125 0.64063,0 1.1875,-0.3125 0.5625,-0.32813 0.78125,-0.89063 0.23438,-0.5625 0.23438,-1.625 v -4.4375 h 1.40625 v 8.29688 z m 4.75781,0 h -1.3125 v -11.45313 h 1.40625 v 4.07813 q 0.89062,-1.10938 2.28125,-1.10938 0.76562,0 1.4375,0.3125 0.6875,0.29688 1.125,0.85938 0.45312,0.5625 0.70312,1.35937 0.25,0.78125 0.25,1.67188 0,2.14062 -1.0625,3.3125 -1.04687,1.15625 -2.53125,1.15625 -1.46875,0 -2.29687,-1.23438 z m -0.0156,-4.21875 q 0,1.5 0.40625,2.15625 0.65625,1.09375 1.79688,1.09375 0.92187,0 1.59375,-0.79688 0.67187,-0.8125 0.67187,-2.39062 0,-1.625 -0.65625,-2.39063 -0.64062,-0.78125 -1.54687,-0.78125 -0.92188,0 -1.59375,0.79688 -0.67188,0.79687 -0.67188,2.3125 z m 13.28907,1.54687 1.45312,0.17188 q -0.34375,1.28125 -1.28125,1.98437 -0.92187,0.70313 -2.35937,0.70313 -1.82813,0 -2.89063,-1.125 -1.0625,-1.125 -1.0625,-3.14063 0,-2.09375 1.07813,-3.25 1.07812,-1.15625 2.79687,-1.15625 1.65625,0 2.70313,1.14063 1.0625,1.125 1.0625,3.17187 0,0.125 0,0.375 h -6.1875 q 0.0781,1.375 0.76562,2.10938 0.70313,0.71875 1.73438,0.71875 0.78125,0 1.32812,-0.40625 0.54688,-0.40625 0.85938,-1.29688 z m -4.60938,-2.28125 h 4.625 q -0.0937,-1.04687 -0.53125,-1.5625 -0.67187,-0.8125 -1.73437,-0.8125 -0.96875,0 -1.64063,0.65625 -0.65625,0.64063 -0.71875,1.71875 z m 8.03906,4.95313 v -11.45313 h 5.07813 q 1.53125,0 2.32812,0.3125 0.79688,0.29688 1.26563,1.07813 0.48437,0.78125 0.48437,1.73437 0,1.21875 -0.79687,2.0625 -0.78125,0.82813 -2.4375,1.04688 0.60937,0.29687 0.92187,0.57812 0.65625,0.60938 1.25,1.51563 l 2,3.125 h -1.90625 l -1.51562,-2.39063 q -0.67188,-1.03125 -1.10938,-1.57812 -0.42187,-0.54688 -0.76562,-0.76563 -0.32813,-0.21875 -0.6875,-0.29687 -0.25,-0.0625 -0.84375,-0.0625 h -1.75 v 5.09375 z m 1.51563,-6.40625 h 3.25 q 1.04687,0 1.625,-0.20313 0.59375,-0.21875 0.89062,-0.6875 0.3125,-0.48437 0.3125,-1.03125 0,-0.8125 -0.59375,-1.32812 -0.59375,-0.53125 -1.85937,-0.53125 h -3.625 z m 15.27344,6.40625 v -1.21875 q -0.96875,1.40625 -2.64063,1.40625 -0.73437,0 -1.375,-0.28125 -0.625,-0.28125 -0.9375,-0.70313 -0.3125,-0.4375 -0.4375,-1.04687 -0.0781,-0.42188 -0.0781,-1.3125 v -5.14063 h 1.40625 v 4.59375 q 0,1.10938 0.0781,1.48438 0.14063,0.5625 0.5625,0.875 0.4375,0.3125 1.0625,0.3125 0.64063,0 1.1875,-0.3125 0.5625,-0.32813 0.78125,-0.89063 0.23438,-0.5625 0.23438,-1.625 v -4.4375 h 1.40625 v 8.29688 z m 3.46093,0 v -8.29688 h 1.26563 v 1.17188 q 0.90625,-1.35938 2.64062,-1.35938 0.75,0 1.375,0.26563 0.625,0.26562 0.9375,0.70312 0.3125,0.4375 0.4375,1.04688 0.0781,0.39062 0.0781,1.35937 v 5.10938 h -1.40625 v -5.04688 q 0,-0.85937 -0.17188,-1.28125 -0.15625,-0.4375 -0.57812,-0.6875 -0.40625,-0.25 -0.96875,-0.25 -0.90625,0 -1.5625,0.57813 -0.64063,0.5625 -0.64063,2.15625 v 4.53125 z m 8.89844,0 v -8.29688 h 1.26563 v 1.17188 q 0.90625,-1.35938 2.64062,-1.35938 0.75,0 1.375,0.26563 0.625,0.26562 0.9375,0.70312 0.3125,0.4375 0.4375,1.04688 0.0781,0.39062 0.0781,1.35937 v 5.10938 h -1.40625 v -5.04688 q 0,-0.85937 -0.17188,-1.28125 -0.15625,-0.4375 -0.57812,-0.6875 -0.40625,-0.25 -0.96875,-0.25 -0.90625,0 -1.5625,0.57813 -0.64063,0.5625 -0.64063,2.15625 v 4.53125 z m 14.57031,-2.67188 1.45313,0.17188 q -0.34375,1.28125 -1.28125,1.98437 -0.92188,0.70313 -2.35938,0.70313 -1.82812,0 -2.89062,-1.125 -1.0625,-1.125 -1.0625,-3.14063 0,-2.09375 1.07812,-3.25 1.07813,-1.15625 2.79688,-1.15625 1.65625,0 2.70312,1.14063 1.0625,1.125 1.0625,3.17187 0,0.125 0,0.375 h -6.1875 q 0.0781,1.375 0.76563,2.10938 0.70312,0.71875 1.73437,0.71875 0.78125,0 1.32813,-0.40625 0.54687,-0.40625 0.85937,-1.29688 z m -4.60937,-2.28125 h 4.625 q -0.0937,-1.04687 -0.53125,-1.5625 -0.67188,-0.8125 -1.73438,-0.8125 -0.96875,0 -1.64062,0.65625 -0.65625,0.64063 -0.71875,1.71875 z m 7.82031,4.95313 v -8.29688 h 1.26563 v 1.25 q 0.48437,-0.875 0.89062,-1.15625 0.40625,-0.28125 0.90625,-0.28125 0.70313,0 1.4375,0.45313 l -0.48437,1.29687 q -0.51563,-0.29687 -1.03125,-0.29687 -0.45313,0 -0.82813,0.28125 -0.35937,0.26562 -0.51562,0.76562 -0.23438,0.75 -0.23438,1.64063 v 4.34375 z"
       id="path4937"
       inkscape:connector-curvature="0"
       style="fill:#000000;fill-rule:nonzero" />
    <path
       d="m 188.45665,159.64868 140.47246,-0.31496"
       id="path4939"
       inkscape:connector-curvature="0"
       style="fill:#000000;fill-opacity:0;fill-rule:evenodd" />
    <path
       d="m 188.45665,159.64868 140.47246,-0.31496"
       id="path4941"
       inkscape:connector-curvature="0"
       style="fill-rule:evenodd;stroke:#595959;stroke-width:1;stroke-linecap:butt;stroke-linejoin:round" />
    <path
       d="m 188.68767,156.40158 h 100.81889 v 38.77165 H 188.68767 Z"
       id="path4943"
       inkscape:connector-curvature="0"
       style="fill:#000000;fill-opacity:0;fill-rule:evenodd" />
    <path
       d="m 198.18767,178.2772 1.39062,-0.21875 q 0.10938,0.84375 0.64063,1.29687 0.54687,0.4375 1.5,0.4375 0.96875,0 1.4375,-0.39062 0.46875,-0.40625 0.46875,-0.9375 0,-0.46875 -0.40625,-0.75 -0.29688,-0.1875 -1.4375,-0.46875 -1.54688,-0.39063 -2.15625,-0.67188 -0.59375,-0.29687 -0.90625,-0.79687 -0.29688,-0.5 -0.29688,-1.10938 0,-0.5625 0.25,-1.03125 0.25,-0.46875 0.6875,-0.78125 0.32813,-0.25 0.89063,-0.40625 0.57812,-0.17187 1.21875,-0.17187 0.98437,0 1.71875,0.28125 0.73437,0.28125 1.07812,0.76562 0.35938,0.46875 0.5,1.28125 l -1.375,0.1875 q -0.0937,-0.64062 -0.54687,-1 -0.45313,-0.35937 -1.26563,-0.35937 -0.96875,0 -1.39062,0.32812 -0.40625,0.3125 -0.40625,0.73438 0,0.28125 0.17187,0.5 0.17188,0.21875 0.53125,0.375 0.21875,0.0781 1.25,0.35937 1.48438,0.39063 2.07813,0.65625 0.59375,0.25 0.92187,0.73438 0.34375,0.48437 0.34375,1.20312 0,0.70313 -0.42187,1.32813 -0.40625,0.60937 -1.1875,0.95312 -0.76563,0.34375 -1.73438,0.34375 -1.625,0 -2.46875,-0.67187 -0.84375,-0.67188 -1.07812,-2 z m 13.96875,1.45312 q -0.78125,0.67188 -1.5,0.95313 -0.71875,0.26562 -1.54688,0.26562 -1.375,0 -2.10937,-0.67187 -0.73438,-0.67188 -0.73438,-1.70313 0,-0.60937 0.28125,-1.10937 0.28125,-0.51563 0.71875,-0.8125 0.45313,-0.3125 1.01563,-0.46875 0.42187,-0.10938 1.25,-0.20313 1.70312,-0.20312 2.51562,-0.48437 0,-0.29688 0,-0.375 0,-0.85938 -0.39062,-1.20313 -0.54688,-0.48437 -1.60938,-0.48437 -0.98437,0 -1.46875,0.35937 -0.46875,0.34375 -0.6875,1.21875 l -1.375,-0.1875 q 0.1875,-0.875 0.60938,-1.42187 0.4375,-0.54688 1.25,-0.82813 0.8125,-0.29687 1.875,-0.29687 1.0625,0 1.71875,0.25 0.67187,0.25 0.98437,0.625 0.3125,0.375 0.4375,0.95312 0.0781,0.35938 0.0781,1.29688 v 1.875 q 0,1.96875 0.0781,2.48437 0.0937,0.51563 0.35938,1 h -1.46875 q -0.21875,-0.4375 -0.28125,-1.03125 z m -0.10938,-3.14062 q -0.76562,0.3125 -2.29687,0.53125 -0.875,0.125 -1.23438,0.28125 -0.35937,0.15625 -0.5625,0.46875 -0.1875,0.29687 -0.1875,0.65625 0,0.5625 0.42188,0.9375 0.4375,0.375 1.25,0.375 0.8125,0 1.4375,-0.34375 0.64062,-0.35938 0.9375,-0.98438 0.23437,-0.46875 0.23437,-1.40625 z m 3.60157,4.17187 v -8.29687 h 1.25 v 1.15625 q 0.39062,-0.60938 1.03125,-0.96875 0.65625,-0.375 1.48437,-0.375 0.92188,0 1.51563,0.39062 0.59375,0.375 0.82812,1.0625 0.98438,-1.45312 2.5625,-1.45312 1.23438,0 1.89063,0.6875 0.67187,0.67187 0.67187,2.09375 v 5.70312 h -1.39062 v -5.23437 q 0,-0.84375 -0.14063,-1.20313 -0.14062,-0.375 -0.5,-0.59375 -0.35937,-0.23437 -0.84375,-0.23437 -0.875,0 -1.45312,0.57812 -0.57813,0.57813 -0.57813,1.85938 v 4.82812 h -1.40625 v -5.39062 q 0,-0.9375 -0.34375,-1.40625 -0.34375,-0.46875 -1.125,-0.46875 -0.59375,0 -1.09375,0.3125 -0.5,0.3125 -0.73437,0.92187 -0.21875,0.59375 -0.21875,1.71875 v 4.3125 z m 13.32812,3.1875 V 172.4647 h 1.28125 v 1.07812 q 0.45313,-0.64062 1.01563,-0.95312 0.57812,-0.3125 1.39062,-0.3125 1.0625,0 1.875,0.54687 0.8125,0.54688 1.21875,1.54688 0.42188,0.98437 0.42188,2.17187 0,1.28125 -0.46875,2.29688 -0.45313,1.01562 -1.32813,1.5625 -0.85937,0.54687 -1.82812,0.54687 -0.70313,0 -1.26563,-0.29687 -0.54687,-0.29688 -0.90625,-0.75 v 4.04687 z m 1.26563,-7.29687 q 0,1.60937 0.64062,2.375 0.65625,0.76562 1.57813,0.76562 0.9375,0 1.60937,-0.79687 0.67188,-0.79688 0.67188,-2.45313 0,-1.59375 -0.65625,-2.375 -0.65625,-0.79687 -1.5625,-0.79687 -0.89063,0 -1.59375,0.84375 -0.6875,0.84375 -0.6875,2.4375 z m 7.60156,4.10937 v -11.45312 h 1.40625 v 11.45312 z m 9.25781,-2.67187 1.45313,0.17187 q -0.34375,1.28125 -1.28125,1.98438 -0.92188,0.70312 -2.35938,0.70312 -1.82812,0 -2.89062,-1.125 -1.0625,-1.125 -1.0625,-3.14062 0,-2.09375 1.07812,-3.25 1.07813,-1.15625 2.79688,-1.15625 1.65625,0 2.70312,1.14062 1.0625,1.125 1.0625,3.17188 0,0.125 0,0.375 h -6.1875 q 0.0781,1.375 0.76563,2.10937 0.70312,0.71875 1.73437,0.71875 0.78125,0 1.32813,-0.40625 0.54687,-0.40625 0.85937,-1.29687 z m -4.60937,-2.28125 h 4.625 q -0.0937,-1.04688 -0.53125,-1.5625 -0.67188,-0.8125 -1.73438,-0.8125 -0.96875,0 -1.64062,0.65625 -0.65625,0.64062 -0.71875,1.71875 z m 7.27343,2.46875 1.39063,-0.21875 q 0.10937,0.84375 0.64062,1.29687 0.54688,0.4375 1.5,0.4375 0.96875,0 1.4375,-0.39062 0.46875,-0.40625 0.46875,-0.9375 0,-0.46875 -0.40625,-0.75 -0.29687,-0.1875 -1.4375,-0.46875 -1.54687,-0.39063 -2.15625,-0.67188 -0.59375,-0.29687 -0.90625,-0.79687 -0.29687,-0.5 -0.29687,-1.10938 0,-0.5625 0.25,-1.03125 0.25,-0.46875 0.6875,-0.78125 0.32812,-0.25 0.89062,-0.40625 0.57813,-0.17187 1.21875,-0.17187 0.98438,0 1.71875,0.28125 0.73438,0.28125 1.07813,0.76562 0.35936,0.46875 0.49998,1.28125 l -1.37498,0.1875 q -0.0937,-0.64062 -0.54687,-1 -0.45313,-0.35937 -1.26563,-0.35937 -0.96875,0 -1.39062,0.32812 -0.40625,0.3125 -0.40625,0.73438 0,0.28125 0.17187,0.5 0.17188,0.21875 0.53125,0.375 0.21875,0.0781 1.25,0.35937 1.48438,0.39063 2.07813,0.65625 0.59375,0.25 0.92185,0.73438 0.34375,0.48437 0.34375,1.20312 0,0.70313 -0.42187,1.32813 -0.40623,0.60937 -1.18748,0.95312 -0.76563,0.34375 -1.73438,0.34375 -1.625,0 -2.46875,-0.67187 -0.84375,-0.67188 -1.07813,-2 z m 7.99999,-6.875 0.35937,-1.10938 q 1.25,0.4375 1.8125,0.76563 -0.15625,-1.42188 -0.15625,-1.95313 h 1.125 q -0.0156,0.78125 -0.17187,1.9375 0.79687,-0.40625 1.84375,-0.75 l 0.35937,1.10938 q -1,0.32812 -1.95312,0.4375 0.48437,0.42187 1.34375,1.48437 l -0.9375,0.65625 q -0.45313,-0.60937 -1.0625,-1.67187 -0.57813,1.09375 -1.01563,1.67187 l -0.92187,-0.65625 q 0.90625,-1.125 1.29687,-1.48437 -1.01562,-0.1875 -1.92187,-0.4375 z"
       id="path4945"
       inkscape:connector-curvature="0"
       style="fill:#000000;fill-rule:nonzero" />
    <path
       d="m 275.0782,124.40157 h 60.12601 v 38.77166 H 275.0782 Z"
       id="path4947"
       inkscape:connector-curvature="0"
       style="fill:#000000;fill-opacity:0;fill-rule:evenodd" />
    <path
       d="M 285.1407,151.94908 V 140.4647 h 1.28125 v 1.07813 q 0.45312,-0.64063 1.01562,-0.95313 0.57813,-0.3125 1.39063,-0.3125 1.0625,0 1.875,0.54688 0.8125,0.54687 1.21875,1.54687 0.42187,0.98438 0.42187,2.17188 0,1.28125 -0.46875,2.29687 -0.45312,1.01563 -1.32812,1.5625 -0.85938,0.54688 -1.82813,0.54688 -0.70312,0 -1.26562,-0.29688 -0.54688,-0.29687 -0.90625,-0.75 v 4.04688 z m 1.26562,-7.29688 q 0,1.60938 0.64063,2.375 0.65625,0.76563 1.57812,0.76563 0.9375,0 1.60938,-0.79688 0.67187,-0.79687 0.67187,-2.45312 0,-1.59375 -0.65625,-2.375 -0.65625,-0.79688 -1.5625,-0.79688 -0.89062,0 -1.59375,0.84375 -0.6875,0.84375 -0.6875,2.4375 z m 7.60157,4.10938 v -11.45313 h 1.40625 v 11.45313 z m 8.99218,-1.03125 q -0.78125,0.67187 -1.5,0.95312 -0.71875,0.26563 -1.54687,0.26563 -1.375,0 -2.10938,-0.67188 -0.73437,-0.67187 -0.73437,-1.70312 0,-0.60938 0.28125,-1.10938 0.28125,-0.51562 0.71875,-0.8125 0.45312,-0.3125 1.01562,-0.46875 0.42188,-0.10937 1.25,-0.20312 1.70313,-0.20313 2.51563,-0.48438 0,-0.29687 0,-0.375 0,-0.85937 -0.39063,-1.20312 -0.54687,-0.48438 -1.60937,-0.48438 -0.98438,0 -1.46875,0.35938 -0.46875,0.34375 -0.6875,1.21875 l -1.375,-0.1875 q 0.1875,-0.875 0.60937,-1.42188 0.4375,-0.54687 1.25,-0.82812 0.8125,-0.29688 1.875,-0.29688 1.0625,0 1.71875,0.25 0.67188,0.25 0.98438,0.625 0.3125,0.375 0.4375,0.95313 0.0781,0.35937 0.0781,1.29687 v 1.875 q 0,1.96875 0.0781,2.48438 0.0937,0.51562 0.35937,1 h -1.46875 q -0.21875,-0.4375 -0.28125,-1.03125 z m -0.10937,-3.14063 q -0.76563,0.3125 -2.29688,0.53125 -0.875,0.125 -1.23437,0.28125 -0.35938,0.15625 -0.5625,0.46875 -0.1875,0.29688 -0.1875,0.65625 0,0.5625 0.42187,0.9375 0.4375,0.375 1.25,0.375 0.8125,0 1.4375,-0.34375 0.64063,-0.35937 0.9375,-0.98437 0.23438,-0.46875 0.23438,-1.40625 z m 6.66406,2.90625 0.20313,1.25 q -0.59375,0.125 -1.0625,0.125 -0.76563,0 -1.1875,-0.23437 -0.42188,-0.25 -0.59375,-0.64063 -0.17188,-0.40625 -0.17188,-1.67187 v -4.76563 h -1.03125 v -1.09375 h 1.03125 v -2.0625 l 1.40625,-0.84375 v 2.90625 h 1.40625 v 1.09375 h -1.40625 v 4.84375 q 0,0.60938 0.0625,0.78125 0.0781,0.17188 0.25,0.28125 0.17188,0.0937 0.48438,0.0937 0.23437,0 0.60937,-0.0625 z m 7.05469,-1.40625 1.45312,0.17188 q -0.34375,1.28125 -1.28125,1.98437 -0.92187,0.70313 -2.35937,0.70313 -1.82813,0 -2.89063,-1.125 -1.0625,-1.125 -1.0625,-3.14063 0,-2.09375 1.07813,-3.25 1.07812,-1.15625 2.79687,-1.15625 1.65625,0 2.70313,1.14063 1.0625,1.125 1.0625,3.17187 0,0.125 0,0.375 h -6.1875 q 0.0781,1.375 0.76562,2.10938 0.70313,0.71875 1.73438,0.71875 0.78125,0 1.32812,-0.40625 0.54688,-0.40625 0.85938,-1.29688 z m -4.60938,-2.28125 h 4.625 q -0.0937,-1.04687 -0.53125,-1.5625 -0.67187,-0.8125 -1.73437,-0.8125 -0.96875,0 -1.64063,0.65625 -0.65625,0.64063 -0.71875,1.71875 z"
       id="path4949"
       inkscape:connector-curvature="0"
       style="fill:#000000;fill-rule:nonzero" />
    <path
       d="M 188.8661,110.04987 328.9291,87.34121"
       id="path4951"
       inkscape:connector-curvature="0"
       style="fill:#000000;fill-opacity:0;fill-rule:evenodd" />
    <path
       d="M 188.8661,110.04987 328.9291,87.34121"
       id="path4953"
       inkscape:connector-curvature="0"
       style="fill-rule:evenodd;stroke:#595959;stroke-width:1;stroke-linecap:butt;stroke-linejoin:round" />
    <path
       d="m 188.68767,100.40157 h 100.81889 v 38.77166 H 188.68767 Z"
       id="path4955"
       inkscape:connector-curvature="0"
       style="fill:#000000;fill-opacity:0;fill-rule:evenodd" />
    <path
       d="m 198.18767,122.2772 1.39062,-0.21875 q 0.10938,0.84375 0.64063,1.29687 0.54687,0.4375 1.5,0.4375 0.96875,0 1.4375,-0.39062 0.46875,-0.40625 0.46875,-0.9375 0,-0.46875 -0.40625,-0.75 -0.29688,-0.1875 -1.4375,-0.46875 -1.54688,-0.39063 -2.15625,-0.67188 -0.59375,-0.29687 -0.90625,-0.79687 -0.29688,-0.5 -0.29688,-1.10938 0,-0.5625 0.25,-1.03125 0.25,-0.46875 0.6875,-0.78125 0.32813,-0.25 0.89063,-0.40625 0.57812,-0.17187 1.21875,-0.17187 0.98437,0 1.71875,0.28125 0.73437,0.28125 1.07812,0.76562 0.35938,0.46875 0.5,1.28125 l -1.375,0.1875 q -0.0937,-0.64062 -0.54687,-1 -0.45313,-0.35937 -1.26563,-0.35937 -0.96875,0 -1.39062,0.32812 -0.40625,0.3125 -0.40625,0.73438 0,0.28125 0.17187,0.5 0.17188,0.21875 0.53125,0.375 0.21875,0.0781 1.25,0.35937 1.48438,0.39063 2.07813,0.65625 0.59375,0.25 0.92187,0.73438 0.34375,0.48437 0.34375,1.20312 0,0.70313 -0.42187,1.32813 -0.40625,0.60937 -1.1875,0.95312 -0.76563,0.34375 -1.73438,0.34375 -1.625,0 -2.46875,-0.67187 -0.84375,-0.67188 -1.07812,-2 z m 13.96875,1.45312 q -0.78125,0.67188 -1.5,0.95313 -0.71875,0.26562 -1.54688,0.26562 -1.375,0 -2.10937,-0.67187 -0.73438,-0.67188 -0.73438,-1.70313 0,-0.60937 0.28125,-1.10937 0.28125,-0.51563 0.71875,-0.8125 0.45313,-0.3125 1.01563,-0.46875 0.42187,-0.10938 1.25,-0.20313 1.70312,-0.20312 2.51562,-0.48437 0,-0.29688 0,-0.375 0,-0.85938 -0.39062,-1.20313 -0.54688,-0.48437 -1.60938,-0.48437 -0.98437,0 -1.46875,0.35937 -0.46875,0.34375 -0.6875,1.21875 l -1.375,-0.1875 q 0.1875,-0.875 0.60938,-1.42187 0.4375,-0.54688 1.25,-0.82813 0.8125,-0.29687 1.875,-0.29687 1.0625,0 1.71875,0.25 0.67187,0.25 0.98437,0.625 0.3125,0.375 0.4375,0.95312 0.0781,0.35938 0.0781,1.29688 v 1.875 q 0,1.96875 0.0781,2.48437 0.0937,0.51563 0.35938,1 h -1.46875 q -0.21875,-0.4375 -0.28125,-1.03125 z m -0.10938,-3.14062 q -0.76562,0.3125 -2.29687,0.53125 -0.875,0.125 -1.23438,0.28125 -0.35937,0.15625 -0.5625,0.46875 -0.1875,0.29687 -0.1875,0.65625 0,0.5625 0.42188,0.9375 0.4375,0.375 1.25,0.375 0.8125,0 1.4375,-0.34375 0.64062,-0.35938 0.9375,-0.98438 0.23437,-0.46875 0.23437,-1.40625 z m 3.60157,4.17187 v -8.29687 h 1.25 v 1.15625 q 0.39062,-0.60938 1.03125,-0.96875 0.65625,-0.375 1.48437,-0.375 0.92188,0 1.51563,0.39062 0.59375,0.375 0.82812,1.0625 0.98438,-1.45312 2.5625,-1.45312 1.23438,0 1.89063,0.6875 0.67187,0.67187 0.67187,2.09375 v 5.70312 h -1.39062 v -5.23437 q 0,-0.84375 -0.14063,-1.20313 -0.14062,-0.375 -0.5,-0.59375 -0.35937,-0.23437 -0.84375,-0.23437 -0.875,0 -1.45312,0.57812 -0.57813,0.57813 -0.57813,1.85938 v 4.82812 h -1.40625 v -5.39062 q 0,-0.9375 -0.34375,-1.40625 -0.34375,-0.46875 -1.125,-0.46875 -0.59375,0 -1.09375,0.3125 -0.5,0.3125 -0.73437,0.92187 -0.21875,0.59375 -0.21875,1.71875 v 4.3125 z m 13.32812,3.1875 V 116.4647 h 1.28125 v 1.07812 q 0.45313,-0.64062 1.01563,-0.95312 0.57812,-0.3125 1.39062,-0.3125 1.0625,0 1.875,0.54687 0.8125,0.54688 1.21875,1.54688 0.42188,0.98437 0.42188,2.17187 0,1.28125 -0.46875,2.29688 -0.45313,1.01562 -1.32813,1.5625 -0.85937,0.54687 -1.82812,0.54687 -0.70313,0 -1.26563,-0.29687 -0.54687,-0.29688 -0.90625,-0.75 v 4.04687 z m 1.26563,-7.29687 q 0,1.60937 0.64062,2.375 0.65625,0.76562 1.57813,0.76562 0.9375,0 1.60937,-0.79687 0.67188,-0.79688 0.67188,-2.45313 0,-1.59375 -0.65625,-2.375 -0.65625,-0.79687 -1.5625,-0.79687 -0.89063,0 -1.59375,0.84375 -0.6875,0.84375 -0.6875,2.4375 z m 7.60156,4.10937 v -11.45312 h 1.40625 v 11.45312 z m 9.25781,-2.67187 1.45313,0.17187 q -0.34375,1.28125 -1.28125,1.98438 -0.92188,0.70312 -2.35938,0.70312 -1.82812,0 -2.89062,-1.125 -1.0625,-1.125 -1.0625,-3.14062 0,-2.09375 1.07812,-3.25 1.07813,-1.15625 2.79688,-1.15625 1.65625,0 2.70312,1.14062 1.0625,1.125 1.0625,3.17188 0,0.125 0,0.375 h -6.1875 q 0.0781,1.375 0.76563,2.10937 0.70312,0.71875 1.73437,0.71875 0.78125,0 1.32813,-0.40625 0.54687,-0.40625 0.85937,-1.29687 z m -4.60937,-2.28125 h 4.625 q -0.0937,-1.04688 -0.53125,-1.5625 -0.67188,-0.8125 -1.73438,-0.8125 -0.96875,0 -1.64062,0.65625 -0.65625,0.64062 -0.71875,1.71875 z m 7.27343,2.46875 1.39063,-0.21875 q 0.10937,0.84375 0.64062,1.29687 0.54688,0.4375 1.5,0.4375 0.96875,0 1.4375,-0.39062 0.46875,-0.40625 0.46875,-0.9375 0,-0.46875 -0.40625,-0.75 -0.29687,-0.1875 -1.4375,-0.46875 -1.54687,-0.39063 -2.15625,-0.67188 -0.59375,-0.29687 -0.90625,-0.79687 -0.29687,-0.5 -0.29687,-1.10938 0,-0.5625 0.25,-1.03125 0.25,-0.46875 0.6875,-0.78125 0.32812,-0.25 0.89062,-0.40625 0.57813,-0.17187 1.21875,-0.17187 0.98438,0 1.71875,0.28125 0.73438,0.28125 1.07813,0.76562 0.35936,0.46875 0.49998,1.28125 l -1.37498,0.1875 q -0.0937,-0.64062 -0.54687,-1 -0.45313,-0.35937 -1.26563,-0.35937 -0.96875,0 -1.39062,0.32812 -0.40625,0.3125 -0.40625,0.73438 0,0.28125 0.17187,0.5 0.17188,0.21875 0.53125,0.375 0.21875,0.0781 1.25,0.35937 1.48438,0.39063 2.07813,0.65625 0.59375,0.25 0.92185,0.73438 0.34375,0.48437 0.34375,1.20312 0,0.70313 -0.42187,1.32813 -0.40623,0.60937 -1.18748,0.95312 -0.76563,0.34375 -1.73438,0.34375 -1.625,0 -2.46875,-0.67187 -0.84375,-0.67188 -1.07813,-2 z m 7.99999,-6.875 0.35937,-1.10938 q 1.25,0.4375 1.8125,0.76563 -0.15625,-1.42188 -0.15625,-1.95313 h 1.125 q -0.0156,0.78125 -0.17187,1.9375 0.79687,-0.40625 1.84375,-0.75 l 0.35937,1.10938 q -1,0.32812 -1.95312,0.4375 0.48437,0.42187 1.34375,1.48437 l -0.9375,0.65625 q -0.45313,-0.60937 -1.0625,-1.67187 -0.57813,1.09375 -1.01563,1.67187 l -0.92187,-0.65625 q 0.90625,-1.125 1.29687,-1.48437 -1.01562,-0.1875 -1.92187,-0.4375 z"
       id="path4957"
       inkscape:connector-curvature="0"
       style="fill:#000000;fill-rule:nonzero" />
    <path
       d="m 276.68765,60.401573 h 60.12601 v 38.771652 h -60.12601 z"
       id="path4959"
       inkscape:connector-curvature="0"
       style="fill:#000000;fill-opacity:0;fill-rule:evenodd" />
    <path
       d="m 289.81265,83.49595 0.20313,1.25 q -0.59375,0.125 -1.0625,0.125 -0.76563,0 -1.1875,-0.234375 -0.42188,-0.25 -0.59375,-0.640625 -0.17188,-0.40625 -0.17188,-1.671875 V 77.55845 H 285.9689 V 76.4647 h 1.03125 v -2.0625 l 1.40625,-0.84375 v 2.90625 h 1.40625 v 1.09375 h -1.40625 v 4.84375 q 0,0.609375 0.0625,0.78125 0.0781,0.171875 0.25,0.28125 0.17188,0.09375 0.48438,0.09375 0.23437,0 0.60937,-0.0625 z m 1.38281,-8.578125 V 73.30845 h 1.40625 v 1.609375 z m 0,9.84375 V 76.4647 h 1.40625 v 8.296875 z m 3.55469,3.1875 V 76.4647 h 1.28125 v 1.078125 q 0.45313,-0.640625 1.01563,-0.953125 0.57812,-0.3125 1.39062,-0.3125 1.0625,0 1.875,0.546875 0.8125,0.546875 1.21875,1.546875 0.42188,0.984375 0.42188,2.171875 0,1.28125 -0.46875,2.296875 -0.45313,1.015625 -1.32813,1.5625 -0.85937,0.546875 -1.82812,0.546875 -0.70313,0 -1.26563,-0.296875 -0.54687,-0.296875 -0.90625,-0.75 v 4.046875 z m 1.26563,-7.296875 q 0,1.609375 0.64062,2.375 0.65625,0.765625 1.57813,0.765625 0.9375,0 1.60937,-0.796875 0.67188,-0.796875 0.67188,-2.453125 0,-1.59375 -0.65625,-2.375 -0.65625,-0.796875 -1.5625,-0.796875 -0.89063,0 -1.59375,0.84375 -0.6875,0.84375 -0.6875,2.4375 z m 7.07031,1.625 1.39062,-0.21875 q 0.10938,0.84375 0.64063,1.296875 0.54687,0.4375 1.5,0.4375 0.96875,0 1.4375,-0.390625 0.46875,-0.40625 0.46875,-0.9375 0,-0.46875 -0.40625,-0.75 -0.29688,-0.1875 -1.4375,-0.46875 -1.54688,-0.390625 -2.15625,-0.671875 -0.59375,-0.296875 -0.90625,-0.796875 -0.29688,-0.5 -0.29688,-1.109375 0,-0.5625 0.25,-1.03125 0.25,-0.46875 0.6875,-0.78125 0.32813,-0.25 0.89063,-0.40625 0.57812,-0.171875 1.21875,-0.171875 0.98437,0 1.71875,0.28125 0.73437,0.28125 1.07812,0.765625 0.35938,0.46875 0.5,1.28125 l -1.375,0.1875 q -0.0937,-0.640625 -0.54687,-1 -0.45313,-0.359375 -1.26563,-0.359375 -0.96875,0 -1.39062,0.328125 -0.40625,0.3125 -0.40625,0.734375 0,0.28125 0.17187,0.5 0.17188,0.21875 0.53125,0.375 0.21875,0.07813 1.25,0.359375 1.48438,0.390625 2.07813,0.65625 0.59375,0.25 0.92187,0.734375 0.34375,0.484375 0.34375,1.203125 0,0.703125 -0.42187,1.328125 -0.40625,0.609375 -1.1875,0.953125 -0.76563,0.34375 -1.73438,0.34375 -1.625,0 -2.46875,-0.671875 -0.84375,-0.671875 -1.07812,-2 z m 8,-6.875 0.35937,-1.109375 q 1.25,0.4375 1.8125,0.765625 -0.15625,-1.421875 -0.15625,-1.953125 h 1.125 q -0.0156,0.78125 -0.17187,1.9375 0.79687,-0.40625 1.84375,-0.75 l 0.35937,1.109375 q -1,0.328125 -1.95312,0.4375 0.48437,0.421875 1.34375,1.484375 l -0.9375,0.65625 q -0.45313,-0.609375 -1.0625,-1.671875 -0.57813,1.09375 -1.01563,1.671875 l -0.92187,-0.65625 q 0.90625,-1.125 1.29687,-1.484375 -1.01562,-0.1875 -1.92187,-0.4375 z"
       id="path4961"
       inkscape:connector-curvature="0"
       style="fill:#000000;fill-rule:nonzero" />
    <path
       d="m 162.59839,186.74278 h -0.70525 V 223.3412 H 328.9291"
       id="path4963"
       inkscape:connector-curvature="0"
       style="fill:#000000;fill-opacity:0;fill-rule:evenodd" />
    <path
       d="m 162.59839,186.74278 h -0.70525 V 223.3412 H 328.9291"
       id="path4965"
       inkscape:connector-curvature="0"
       style="fill-rule:evenodd;stroke:#595959;stroke-width:1;stroke-linecap:butt;stroke-linejoin:round" />
    <path
       d="m 156.68767,220.40158 h 100.81889 v 38.77164 H 156.68767 Z"
       id="path4967"
       inkscape:connector-curvature="0"
       style="fill:#000000;fill-opacity:0;fill-rule:evenodd" />
    <path
       d="m 166.18767,242.2772 1.39062,-0.21875 q 0.10938,0.84375 0.64063,1.29687 0.54687,0.4375 1.5,0.4375 0.96875,0 1.4375,-0.39062 0.46875,-0.40625 0.46875,-0.9375 0,-0.46875 -0.40625,-0.75 -0.29688,-0.1875 -1.4375,-0.46875 -1.54688,-0.39063 -2.15625,-0.67188 -0.59375,-0.29687 -0.90625,-0.79687 -0.29688,-0.5 -0.29688,-1.10938 0,-0.5625 0.25,-1.03125 0.25,-0.46875 0.6875,-0.78125 0.32813,-0.25 0.89063,-0.40625 0.57812,-0.17187 1.21875,-0.17187 0.98437,0 1.71875,0.28125 0.73437,0.28125 1.07812,0.76562 0.35938,0.46875 0.5,1.28125 l -1.375,0.1875 q -0.0937,-0.64062 -0.54687,-1 -0.45313,-0.35937 -1.26563,-0.35937 -0.96875,0 -1.39062,0.32812 -0.40625,0.3125 -0.40625,0.73438 0,0.28125 0.17187,0.5 0.17188,0.21875 0.53125,0.375 0.21875,0.0781 1.25,0.35937 1.48438,0.39063 2.07813,0.65625 0.59375,0.25 0.92187,0.73438 0.34375,0.48437 0.34375,1.20312 0,0.70313 -0.42187,1.32813 -0.40625,0.60937 -1.1875,0.95312 -0.76563,0.34375 -1.73438,0.34375 -1.625,0 -2.46875,-0.67187 -0.84375,-0.67188 -1.07812,-2 z m 13.96875,1.45312 q -0.78125,0.67188 -1.5,0.95313 -0.71875,0.26562 -1.54688,0.26562 -1.375,0 -2.10937,-0.67187 -0.73438,-0.67188 -0.73438,-1.70313 0,-0.60937 0.28125,-1.10937 0.28125,-0.51563 0.71875,-0.8125 0.45313,-0.3125 1.01563,-0.46875 0.42187,-0.10938 1.25,-0.20313 1.70312,-0.20312 2.51562,-0.48437 0,-0.29688 0,-0.375 0,-0.85938 -0.39062,-1.20313 -0.54688,-0.48437 -1.60938,-0.48437 -0.98437,0 -1.46875,0.35937 -0.46875,0.34375 -0.6875,1.21875 l -1.375,-0.1875 q 0.1875,-0.875 0.60938,-1.42187 0.4375,-0.54688 1.25,-0.82813 0.8125,-0.29687 1.875,-0.29687 1.0625,0 1.71875,0.25 0.67187,0.25 0.98437,0.625 0.3125,0.375 0.4375,0.95312 0.0781,0.35938 0.0781,1.29688 v 1.875 q 0,1.96875 0.0781,2.48437 0.0937,0.51563 0.35938,1 h -1.46875 q -0.21875,-0.4375 -0.28125,-1.03125 z m -0.10938,-3.14062 q -0.76562,0.3125 -2.29687,0.53125 -0.875,0.125 -1.23438,0.28125 -0.35937,0.15625 -0.5625,0.46875 -0.1875,0.29687 -0.1875,0.65625 0,0.5625 0.42188,0.9375 0.4375,0.375 1.25,0.375 0.8125,0 1.4375,-0.34375 0.64062,-0.35938 0.9375,-0.98438 0.23437,-0.46875 0.23437,-1.40625 z m 3.60157,4.17187 v -8.29687 h 1.25 v 1.15625 q 0.39062,-0.60938 1.03125,-0.96875 0.65625,-0.375 1.48437,-0.375 0.92188,0 1.51563,0.39062 0.59375,0.375 0.82812,1.0625 0.98438,-1.45312 2.5625,-1.45312 1.23438,0 1.89063,0.6875 0.67187,0.67187 0.67187,2.09375 v 5.70312 h -1.39062 v -5.23437 q 0,-0.84375 -0.14063,-1.20313 -0.14062,-0.375 -0.5,-0.59375 -0.35937,-0.23437 -0.84375,-0.23437 -0.875,0 -1.45312,0.57812 -0.57813,0.57813 -0.57813,1.85938 v 4.82812 h -1.40625 v -5.39062 q 0,-0.9375 -0.34375,-1.40625 -0.34375,-0.46875 -1.125,-0.46875 -0.59375,0 -1.09375,0.3125 -0.5,0.3125 -0.73437,0.92187 -0.21875,0.59375 -0.21875,1.71875 v 4.3125 z m 13.32812,3.1875 V 236.4647 h 1.28125 v 1.07812 q 0.45313,-0.64062 1.01563,-0.95312 0.57812,-0.3125 1.39062,-0.3125 1.0625,0 1.875,0.54687 0.8125,0.54688 1.21875,1.54688 0.42188,0.98437 0.42188,2.17187 0,1.28125 -0.46875,2.29688 -0.45313,1.01562 -1.32813,1.5625 -0.85937,0.54687 -1.82812,0.54687 -0.70313,0 -1.26563,-0.29687 -0.54687,-0.29688 -0.90625,-0.75 v 4.04687 z m 1.26563,-7.29687 q 0,1.60937 0.64062,2.375 0.65625,0.76562 1.57813,0.76562 0.9375,0 1.60937,-0.79687 0.67188,-0.79688 0.67188,-2.45313 0,-1.59375 -0.65625,-2.375 -0.65625,-0.79687 -1.5625,-0.79687 -0.89063,0 -1.59375,0.84375 -0.6875,0.84375 -0.6875,2.4375 z m 7.60156,4.10937 v -11.45312 h 1.40625 v 11.45312 z m 9.25781,-2.67187 1.45313,0.17187 q -0.34375,1.28125 -1.28125,1.98438 -0.92188,0.70312 -2.35938,0.70312 -1.82812,0 -2.89062,-1.125 -1.0625,-1.125 -1.0625,-3.14062 0,-2.09375 1.07812,-3.25 1.07813,-1.15625 2.79688,-1.15625 1.65625,0 2.70312,1.14062 1.0625,1.125 1.0625,3.17188 0,0.125 0,0.375 h -6.1875 q 0.0781,1.375 0.76563,2.10937 0.70312,0.71875 1.73437,0.71875 0.78125,0 1.32813,-0.40625 0.54687,-0.40625 0.85937,-1.29687 z m -4.60937,-2.28125 h 4.625 q -0.0937,-1.04688 -0.53125,-1.5625 -0.67188,-0.8125 -1.73438,-0.8125 -0.96875,0 -1.64062,0.65625 -0.65625,0.64062 -0.71875,1.71875 z m 7.27343,2.46875 1.39063,-0.21875 q 0.10937,0.84375 0.64062,1.29687 0.54688,0.4375 1.5,0.4375 0.96875,0 1.4375,-0.39062 0.46875,-0.40625 0.46875,-0.9375 0,-0.46875 -0.40625,-0.75 -0.29687,-0.1875 -1.4375,-0.46875 -1.54687,-0.39063 -2.15625,-0.67188 -0.59375,-0.29687 -0.90625,-0.79687 -0.29687,-0.5 -0.29687,-1.10938 0,-0.5625 0.25,-1.03125 0.25,-0.46875 0.6875,-0.78125 0.32812,-0.25 0.89062,-0.40625 0.57813,-0.17187 1.21875,-0.17187 0.98438,0 1.71875,0.28125 0.73438,0.28125 1.07813,0.76562 0.35937,0.46875 0.5,1.28125 l -1.375,0.1875 q -0.0937,-0.64062 -0.54688,-1 -0.45312,-0.35937 -1.26562,-0.35937 -0.96875,0 -1.39063,0.32812 -0.40625,0.3125 -0.40625,0.73438 0,0.28125 0.17188,0.5 0.17187,0.21875 0.53125,0.375 0.21875,0.0781 1.25,0.35937 1.48437,0.39063 2.07812,0.65625 0.59375,0.25 0.92188,0.73438 0.34375,0.48437 0.34375,1.20312 0,0.70313 -0.42188,1.32813 -0.40625,0.60937 -1.1875,0.95312 -0.76562,0.34375 -1.73437,0.34375 -1.625,0 -2.46875,-0.67187 -0.84375,-0.67188 -1.07813,-2 z m 8,-6.875 0.35938,-1.10938 q 1.25,0.4375 1.8125,0.76563 -0.15625,-1.42188 -0.15625,-1.95313 h 1.125 q -0.0156,0.78125 -0.17188,1.9375 0.79688,-0.40625 1.84375,-0.75 l 0.35938,1.10938 q -1,0.32812 -1.95313,0.4375 0.48438,0.42187 1.34375,1.48437 l -0.9375,0.65625 q -0.45312,-0.60937 -1.0625,-1.67187 -0.57812,1.09375 -1.01562,1.67187 l -0.92188,-0.65625 q 0.90625,-1.125 1.29688,-1.48437 -1.01563,-0.1875 -1.92188,-0.4375 z"
       id="path4969"
       inkscape:connector-curvature="0"
       style="fill:#000000;fill-rule:nonzero" />
    <path
       d="m 274.5575,189.82169 h 60.12598 v 38.77167 H 274.5575 Z"
       id="path4971"
       inkscape:connector-curvature="0"
       style="fill:#000000;fill-opacity:0;fill-rule:evenodd" />
    <path
       d="m 287.6825,212.91606 0.20312,1.25 q -0.59375,0.125 -1.0625,0.125 -0.76562,0 -1.1875,-0.23438 -0.42187,-0.25 -0.59375,-0.64062 -0.17187,-0.40625 -0.17187,-1.67188 v -4.76562 h -1.03125 v -1.09375 H 284.87 v -2.0625 l 1.40625,-0.84375 v 2.90625 h 1.40625 v 1.09375 h -1.40625 v 4.84375 q 0,0.60937 0.0625,0.78125 0.0781,0.17187 0.25,0.28125 0.17187,0.0937 0.48437,0.0937 0.23438,0 0.60938,-0.0625 z m 6.82031,1.26562 v -1.21875 q -0.96875,1.40625 -2.64062,1.40625 -0.73438,0 -1.375,-0.28125 -0.625,-0.28125 -0.9375,-0.70312 -0.3125,-0.4375 -0.4375,-1.04688 -0.0781,-0.42187 -0.0781,-1.3125 v -5.14062 h 1.40625 v 4.59375 q 0,1.10937 0.0781,1.48437 0.14062,0.5625 0.5625,0.875 0.4375,0.3125 1.0625,0.3125 0.64062,0 1.1875,-0.3125 0.5625,-0.32812 0.78125,-0.89062 0.23437,-0.5625 0.23437,-1.625 v -4.4375 h 1.40625 v 8.29687 z m 4.75781,0 h -1.3125 v -11.45312 h 1.40625 v 4.07812 q 0.89063,-1.10937 2.28125,-1.10937 0.76563,0 1.4375,0.3125 0.6875,0.29687 1.125,0.85937 0.45313,0.5625 0.70313,1.35938 0.25,0.78125 0.25,1.67187 0,2.14063 -1.0625,3.3125 -1.04688,1.15625 -2.53125,1.15625 -1.46875,0 -2.29688,-1.23437 z m -0.0156,-4.21875 q 0,1.5 0.40625,2.15625 0.65625,1.09375 1.79687,1.09375 0.92188,0 1.59375,-0.79687 0.67188,-0.8125 0.67188,-2.39063 0,-1.625 -0.65625,-2.39062 -0.64063,-0.78125 -1.54688,-0.78125 -0.92187,0 -1.59375,0.79687 -0.67187,0.79688 -0.67187,2.3125 z m 13.28906,1.54688 1.45313,0.17187 q -0.34375,1.28125 -1.28125,1.98438 -0.92188,0.70312 -2.35938,0.70312 -1.82812,0 -2.89062,-1.125 -1.0625,-1.125 -1.0625,-3.14062 0,-2.09375 1.07812,-3.25 1.07813,-1.15625 2.79688,-1.15625 1.65625,0 2.70312,1.14062 1.0625,1.125 1.0625,3.17188 0,0.125 0,0.375 h -6.1875 q 0.0781,1.375 0.76563,2.10937 0.70312,0.71875 1.73437,0.71875 0.78125,0 1.32813,-0.40625 0.54687,-0.40625 0.85937,-1.29687 z m -4.60937,-2.28125 h 4.625 q -0.0937,-1.04688 -0.53125,-1.5625 -0.67188,-0.8125 -1.73438,-0.8125 -0.96875,0 -1.64062,0.65625 -0.65625,0.64062 -0.71875,1.71875 z"
       id="path4973"
       inkscape:connector-curvature="0"
       style="fill:#000000;fill-rule:nonzero" />
    <path
       d="m 505.60632,104.38845 h 211.46454 v 43.68504 H 505.60632 Z"
       id="path4975"
       inkscape:connector-curvature="0"
       style="fill:#ffffff;fill-rule:evenodd" />
    <path
       d="m 505.60632,104.38845 h 211.46454 v 43.68504 H 505.60632 Z"
       id="path4977"
       inkscape:connector-curvature="0"
       style="fill-rule:evenodd;stroke:#000000;stroke-width:1;stroke-linecap:butt;stroke-linejoin:round" />
    <path
       d="m 598.90894,128.84097 1.35938,-0.1875 q 0.0625,1.3125 0.5,1.79687 0.4375,0.48438 1.20312,0.48438 0.57813,0 0.98438,-0.26563 0.42187,-0.26562 0.57812,-0.70312 0.15625,-0.45313 0.15625,-1.4375 v -7.89062 h 1.51563 v 7.79687 q 0,1.4375 -0.35938,2.23437 -0.34375,0.78125 -1.09375,1.20313 -0.75,0.42187 -1.76562,0.42187 -1.51563,0 -2.3125,-0.875 -0.79688,-0.875 -0.76563,-2.57812 z m 8.0625,-0.90625 q 0,-2.29687 1.28125,-3.40625 1.07813,-0.92187 2.60938,-0.92187 1.71875,0 2.79687,1.125 1.09375,1.10937 1.09375,3.09375 0,1.59374 -0.48437,2.51562 -0.48438,0.92187 -1.40625,1.4375 -0.90625,0.5 -2,0.5 -1.73438,0 -2.8125,-1.10938 -1.07813,-1.125 -1.07813,-3.23437 z m 1.45313,0 q 0,1.59375 0.6875,2.39062 0.70312,0.79688 1.75,0.79688 1.04687,0 1.73437,-0.79688 0.70313,-0.79687 0.70313,-2.43749 0,-1.53125 -0.70313,-2.32813 -0.6875,-0.79687 -1.73437,-0.79687 -1.04688,0 -1.75,0.79687 -0.6875,0.78125 -0.6875,2.375 z m 9.27343,4.15625 h -1.3125 v -11.45312 h 1.40625 v 4.07812 q 0.89063,-1.10937 2.28125,-1.10937 0.76563,0 1.4375,0.3125 0.6875,0.29687 1.125,0.85937 0.45313,0.5625 0.70313,1.35938 0.25,0.78125 0.25,1.67187 0,2.14062 -1.0625,3.3125 -1.04688,1.15625 -2.53125,1.15625 -1.46875,0 -2.29688,-1.23438 z m -0.0156,-4.21875 q 0,1.5 0.40625,2.15625 0.65625,1.09375 1.79687,1.09375 0.92188,0 1.59375,-0.79688 0.67188,-0.8125 0.67188,-2.39062 0,-1.625 -0.65625,-2.39062 -0.64063,-0.78125 -1.54688,-0.78125 -0.92187,0 -1.59375,0.79687 -0.67187,0.79688 -0.67187,2.3125 z"
       id="path4979"
       inkscape:connector-curvature="0"
       style="fill:#000000;fill-rule:nonzero" />
    <path
       d="m 505.60892,147.57742 h 211.46457 v 53.92126 H 505.60892 Z"
       id="path4981"
       inkscape:connector-curvature="0"
       style="fill:#ffffff;fill-rule:evenodd" />
    <path
       d="m 505.60892,147.57742 h 211.46457 v 53.92126 H 505.60892 Z"
       id="path4983"
       inkscape:connector-curvature="0"
       style="fill-rule:evenodd;stroke:#000000;stroke-width:1;stroke-linecap:butt;stroke-linejoin:round" />
    <path
       d="m 515.67145,175.12492 v -11.48438 h 1.28125 v 1.07813 q 0.45313,-0.64063 1.01563,-0.95313 0.57812,-0.3125 1.39062,-0.3125 1.0625,0 1.875,0.54688 0.8125,0.54687 1.21875,1.54687 0.42188,0.98438 0.42188,2.17188 0,1.28125 -0.46875,2.29687 -0.45313,1.01563 -1.32813,1.5625 -0.85937,0.54688 -1.82812,0.54688 -0.70313,0 -1.26563,-0.29688 -0.54687,-0.29687 -0.90625,-0.75 v 4.04688 z m 1.26563,-7.29688 q 0,1.60938 0.64062,2.375 0.65625,0.76563 1.57813,0.76563 0.9375,0 1.60937,-0.79688 0.67188,-0.79687 0.67188,-2.45312 0,-1.59375 -0.65625,-2.375 -0.65625,-0.79688 -1.5625,-0.79688 -0.89063,0 -1.59375,0.84375 -0.6875,0.84375 -0.6875,2.4375 z m 7.61718,4.10938 v -8.29688 h 1.26563 v 1.25 q 0.48437,-0.875 0.89062,-1.15625 0.40625,-0.28125 0.90625,-0.28125 0.70313,0 1.4375,0.45313 l -0.48437,1.29687 q -0.51563,-0.29687 -1.03125,-0.29687 -0.45313,0 -0.82813,0.28125 -0.35937,0.26562 -0.51562,0.76562 -0.23438,0.75 -0.23438,1.64063 v 4.34375 z m 4.8125,-4.15625 q 0,-2.29688 1.28125,-3.40625 1.07813,-0.92188 2.60938,-0.92188 1.71875,0 2.79687,1.125 1.09375,1.10938 1.09375,3.09375 0,1.59375 -0.48437,2.51563 -0.48438,0.92187 -1.40625,1.4375 -0.90625,0.5 -2,0.5 -1.73438,0 -2.8125,-1.10938 -1.07813,-1.125 -1.07813,-3.23437 z m 1.45313,0 q 0,1.59375 0.6875,2.39062 0.70312,0.79688 1.75,0.79688 1.04687,0 1.73437,-0.79688 0.70313,-0.79687 0.70313,-2.4375 0,-1.53125 -0.70313,-2.32812 -0.6875,-0.79688 -1.73437,-0.79688 -1.04688,0 -1.75,0.79688 -0.6875,0.78125 -0.6875,2.375 z m 11.03906,2.89062 0.20313,1.25 q -0.59375,0.125 -1.0625,0.125 -0.76563,0 -1.1875,-0.23437 -0.42188,-0.25 -0.59375,-0.64063 -0.17188,-0.40625 -0.17188,-1.67187 v -4.76563 h -1.03125 v -1.09375 h 1.03125 v -2.0625 l 1.40625,-0.84375 v 2.90625 h 1.40625 v 1.09375 h -1.40625 v 4.84375 q 0,0.60938 0.0625,0.78125 0.0781,0.17188 0.25,0.28125 0.17188,0.0937 0.48438,0.0937 0.23437,0 0.60937,-0.0625 z m 0.85156,-2.89062 q 0,-2.29688 1.28125,-3.40625 1.07813,-0.92188 2.60938,-0.92188 1.71875,0 2.79687,1.125 1.09375,1.10938 1.09375,3.09375 0,1.59375 -0.48437,2.51563 -0.48438,0.92187 -1.40625,1.4375 -0.90625,0.5 -2,0.5 -1.73438,0 -2.8125,-1.10938 -1.07813,-1.125 -1.07813,-3.23437 z m 1.45313,0 q 0,1.59375 0.6875,2.39062 0.70312,0.79688 1.75,0.79688 1.04687,0 1.73437,-0.79688 0.70313,-0.79687 0.70313,-2.4375 0,-1.53125 -0.70313,-2.32812 -0.6875,-0.79688 -1.73437,-0.79688 -1.04688,0 -1.75,0.79688 -0.6875,0.78125 -0.6875,2.375 z m 13.38281,1.10937 1.39063,0.1875 q -0.23438,1.42188 -1.17188,2.23438 -0.92187,0.8125 -2.28125,0.8125 -1.70312,0 -2.75,-1.10938 -1.03125,-1.125 -1.03125,-3.20312 0,-1.34375 0.4375,-2.34375 0.45313,-1.01563 1.35938,-1.51563 0.92187,-0.5 1.98437,-0.5 1.35938,0 2.21875,0.6875 0.85938,0.67188 1.09375,1.9375 l -1.35937,0.20313 q -0.20313,-0.82813 -0.70313,-1.25 -0.48437,-0.42188 -1.1875,-0.42188 -1.0625,0 -1.73437,0.76563 -0.65625,0.75 -0.65625,2.40625 0,1.67187 0.64062,2.4375 0.64063,0.75 1.67188,0.75 0.82812,0 1.375,-0.5 0.5625,-0.51563 0.70312,-1.57813 z m 2.0625,-1.10937 q 0,-2.29688 1.28125,-3.40625 1.07813,-0.92188 2.60938,-0.92188 1.71875,0 2.79687,1.125 1.09375,1.10938 1.09375,3.09375 0,1.59375 -0.48437,2.51563 -0.48438,0.92187 -1.40625,1.4375 -0.90625,0.5 -2,0.5 -1.73438,0 -2.8125,-1.10938 -1.07813,-1.125 -1.07813,-3.23437 z m 1.45313,0 q 0,1.59375 0.6875,2.39062 0.70312,0.79688 1.75,0.79688 1.04687,0 1.73437,-0.79688 0.70313,-0.79687 0.70313,-2.4375 0,-1.53125 -0.70313,-2.32812 -0.6875,-0.79688 -1.73437,-0.79688 -1.04688,0 -1.75,0.79688 -0.6875,0.78125 -0.6875,2.375 z m 7.94531,4.15625 v -11.45313 h 1.40625 v 11.45313 z m 3.24219,-3.6875 1.4375,-0.125 q 0.0937,0.85937 0.46875,1.42187 0.375,0.54688 1.15625,0.89063 0.78125,0.32812 1.75,0.32812 0.875,0 1.53125,-0.25 0.67187,-0.26562 0.98437,-0.70312 0.32813,-0.45313 0.32813,-0.98438 0,-0.54687 -0.3125,-0.9375 -0.3125,-0.40625 -1.03125,-0.6875 -0.45313,-0.17187 -2.03125,-0.54687 -1.57813,-0.39063 -2.21875,-0.71875 -0.8125,-0.4375 -1.21875,-1.0625 -0.40625,-0.64063 -0.40625,-1.4375 0,-0.85938 0.48437,-1.60938 0.5,-0.76562 1.4375,-1.15625 0.95313,-0.39062 2.10938,-0.39062 1.28125,0 2.25,0.42187 0.96875,0.40625 1.48437,1.20313 0.53125,0.79687 0.57813,1.79687 l -1.45313,0.10938 q -0.125,-1.07813 -0.79687,-1.625 -0.67188,-0.5625 -2,-0.5625 -1.375,0 -2,0.5 -0.625,0.5 -0.625,1.21875 0,0.60937 0.4375,1.01562 0.4375,0.39063 2.28125,0.8125 1.85937,0.42188 2.54687,0.73438 1,0.45312 1.46875,1.17187 0.48438,0.70313 0.48438,1.625 0,0.90625 -0.53125,1.71875 -0.51563,0.8125 -1.5,1.26563 -0.98438,0.45312 -2.20313,0.45312 -1.5625,0 -2.60937,-0.45312 -1.04688,-0.46875 -1.65625,-1.375 -0.59375,-0.90625 -0.625,-2.0625 z m 14.07812,2.42187 0.20313,1.25 q -0.59375,0.125 -1.0625,0.125 -0.76563,0 -1.1875,-0.23437 -0.42188,-0.25 -0.59375,-0.64063 -0.17188,-0.40625 -0.17188,-1.67187 v -4.76563 h -1.03125 v -1.09375 h 1.03125 v -2.0625 l 1.40625,-0.84375 v 2.90625 h 1.40625 v 1.09375 h -1.40625 v 4.84375 q 0,0.60938 0.0625,0.78125 0.0781,0.17188 0.25,0.28125 0.17188,0.0937 0.48438,0.0937 0.23437,0 0.60937,-0.0625 z m 7.05469,-1.40625 1.45312,0.17188 q -0.34375,1.28125 -1.28125,1.98437 -0.92187,0.70313 -2.35937,0.70313 -1.82813,0 -2.89063,-1.125 -1.0625,-1.125 -1.0625,-3.14063 0,-2.09375 1.07813,-3.25 1.07812,-1.15625 2.79687,-1.15625 1.65625,0 2.70313,1.14063 1.0625,1.125 1.0625,3.17187 0,0.125 0,0.375 h -6.1875 q 0.0781,1.375 0.76562,2.10938 0.70313,0.71875 1.73438,0.71875 0.78125,0 1.32812,-0.40625 0.54688,-0.40625 0.85938,-1.29688 z m -4.60938,-2.28125 h 4.625 q -0.0937,-1.04687 -0.53125,-1.5625 -0.67187,-0.8125 -1.73437,-0.8125 -0.96875,0 -1.64063,0.65625 -0.65625,0.64063 -0.71875,1.71875 z m 7.83594,8.14063 v -11.48438 h 1.28125 v 1.07813 q 0.45313,-0.64063 1.01563,-0.95313 0.57812,-0.3125 1.39062,-0.3125 1.0625,0 1.875,0.54688 0.8125,0.54687 1.21875,1.54687 0.42188,0.98438 0.42188,2.17188 0,1.28125 -0.46875,2.29687 -0.45313,1.01563 -1.32813,1.5625 -0.85937,0.54688 -1.82812,0.54688 -0.70313,0 -1.26563,-0.29688 -0.54687,-0.29687 -0.90625,-0.75 v 4.04688 z m 1.26563,-7.29688 q 0,1.60938 0.64062,2.375 0.65625,0.76563 1.57813,0.76563 0.9375,0 1.60937,-0.79688 0.67188,-0.79687 0.67188,-2.45312 0,-1.59375 -0.65625,-2.375 -0.65625,-0.79688 -1.5625,-0.79688 -0.89063,0 -1.59375,0.84375 -0.6875,0.84375 -0.6875,2.4375 z m 7.78906,4.10938 v -11.45313 h 1.5625 l 6.01562,8.98438 v -8.98438 h 1.45313 v 11.45313 h -1.5625 l -6.01563,-9 v 9 z m 16.80469,-1.03125 q -0.78125,0.67187 -1.5,0.95312 -0.71875,0.26563 -1.54688,0.26563 -1.375,0 -2.10937,-0.67188 -0.73438,-0.67187 -0.73438,-1.70312 0,-0.60938 0.28125,-1.10938 0.28125,-0.51562 0.71875,-0.8125 0.45313,-0.3125 1.01563,-0.46875 0.42187,-0.10937 1.25,-0.20312 1.70312,-0.20313 2.51562,-0.48438 0,-0.29687 0,-0.375 0,-0.85937 -0.39062,-1.20312 -0.54688,-0.48438 -1.60938,-0.48438 -0.98437,0 -1.46875,0.35938 -0.46875,0.34375 -0.6875,1.21875 l -1.375,-0.1875 q 0.1875,-0.875 0.60938,-1.42188 0.4375,-0.54687 1.25,-0.82812 0.8125,-0.29688 1.875,-0.29688 1.0625,0 1.71875,0.25 0.67187,0.25 0.98437,0.625 0.3125,0.375 0.4375,0.95313 0.0781,0.35937 0.0781,1.29687 v 1.875 q 0,1.96875 0.0781,2.48438 0.0937,0.51562 0.35938,1 h -1.46875 q -0.21875,-0.4375 -0.28125,-1.03125 z m -0.10938,-3.14063 q -0.76562,0.3125 -2.29687,0.53125 -0.875,0.125 -1.23438,0.28125 -0.35937,0.15625 -0.5625,0.46875 -0.1875,0.29688 -0.1875,0.65625 0,0.5625 0.42188,0.9375 0.4375,0.375 1.25,0.375 0.8125,0 1.4375,-0.34375 0.64062,-0.35937 0.9375,-0.98437 0.23437,-0.46875 0.23437,-1.40625 z m 3.60156,4.17188 v -8.29688 h 1.25 v 1.15625 q 0.39063,-0.60937 1.03125,-0.96875 0.65625,-0.375 1.48438,-0.375 0.92187,0 1.51562,0.39063 0.59375,0.375 0.82813,1.0625 0.98437,-1.45313 2.5625,-1.45313 1.23437,0 1.89062,0.6875 0.67188,0.67188 0.67188,2.09375 v 5.70313 h -1.39063 v -5.23438 q 0,-0.84375 -0.14062,-1.20312 -0.14063,-0.375 -0.5,-0.59375 -0.35938,-0.23438 -0.84375,-0.23438 -0.875,0 -1.45313,0.57813 -0.57812,0.57812 -0.57812,1.85937 v 4.82813 h -1.40625 v -5.39063 q 0,-0.9375 -0.34375,-1.40625 -0.34375,-0.46875 -1.125,-0.46875 -0.59375,0 -1.09375,0.3125 -0.5,0.3125 -0.73438,0.92188 -0.21875,0.59375 -0.21875,1.71875 v 4.3125 z m 19,-2.67188 1.45313,0.17188 q -0.34375,1.28125 -1.28125,1.98437 -0.92188,0.70313 -2.35938,0.70313 -1.82812,0 -2.89062,-1.125 -1.0625,-1.125 -1.0625,-3.14063 0,-2.09375 1.07812,-3.25 1.07813,-1.15625 2.79688,-1.15625 1.65625,0 2.70312,1.14063 1.0625,1.125 1.0625,3.17187 0,0.125 0,0.375 h -6.1875 q 0.0781,1.375 0.76563,2.10938 0.70312,0.71875 1.73437,0.71875 0.78125,0 1.32813,-0.40625 0.54687,-0.40625 0.85937,-1.29688 z m -4.60937,-2.28125 h 4.625 q -0.0937,-1.04687 -0.53125,-1.5625 -0.67188,-0.8125 -1.73438,-0.8125 -0.96875,0 -1.64062,0.65625 -0.65625,0.64063 -0.71875,1.71875 z m 8.22656,-1.75 v -1.59375 h 1.59375 v 1.59375 z m 0,6.70313 v -1.60938 h 1.59375 v 1.60938 z m 8.15625,-3.6875 1.4375,-0.125 q 0.0937,0.85937 0.46875,1.42187 0.375,0.54688 1.15625,0.89063 0.78125,0.32812 1.75,0.32812 0.875,0 1.53125,-0.25 0.67188,-0.26562 0.98438,-0.70312 0.32812,-0.45313 0.32812,-0.98438 0,-0.54687 -0.3125,-0.9375 -0.3125,-0.40625 -1.03125,-0.6875 -0.45312,-0.17187 -2.03125,-0.54687 -1.57812,-0.39063 -2.21875,-0.71875 -0.8125,-0.4375 -1.21875,-1.0625 -0.40625,-0.64063 -0.40625,-1.4375 0,-0.85938 0.48438,-1.60938 0.5,-0.76562 1.4375,-1.15625 0.95312,-0.39062 2.10937,-0.39062 1.28125,0 2.25,0.42187 0.96875,0.40625 1.48438,1.20313 0.53125,0.79687 0.57812,1.79687 l -1.45312,0.10938 q -0.125,-1.07813 -0.79688,-1.625 -0.67187,-0.5625 -2,-0.5625 -1.375,0 -2,0.5 -0.625,0.5 -0.625,1.21875 0,0.60937 0.4375,1.01562 0.4375,0.39063 2.28125,0.8125 1.85938,0.42188 2.54688,0.73438 1,0.45312 1.46875,1.17187 0.48437,0.70313 0.48437,1.625 0,0.90625 -0.53125,1.71875 -0.51562,0.8125 -1.5,1.26563 -0.98437,0.45312 -2.20312,0.45312 -1.5625,0 -2.60938,-0.45312 -1.04687,-0.46875 -1.65625,-1.375 -0.59375,-0.90625 -0.625,-2.0625 z m 14.07813,2.42187 0.20312,1.25 q -0.59375,0.125 -1.0625,0.125 -0.76562,0 -1.1875,-0.23437 -0.42187,-0.25 -0.59375,-0.64063 -0.17187,-0.40625 -0.17187,-1.67187 v -4.76563 h -1.03125 v -1.09375 h 1.03125 v -2.0625 l 1.40625,-0.84375 v 2.90625 h 1.40625 v 1.09375 h -1.40625 v 4.84375 q 0,0.60938 0.0625,0.78125 0.0781,0.17188 0.25,0.28125 0.17187,0.0937 0.48437,0.0937 0.23438,0 0.60938,-0.0625 z m 1.36718,1.26563 v -8.29688 h 1.26563 v 1.25 q 0.48437,-0.875 0.89062,-1.15625 0.40625,-0.28125 0.90625,-0.28125 0.70313,0 1.4375,0.45313 l -0.48437,1.29687 q -0.51563,-0.29687 -1.03125,-0.29687 -0.45313,0 -0.82813,0.28125 -0.35937,0.26562 -0.51562,0.76562 -0.23438,0.75 -0.23438,1.64063 v 4.34375 z m 5.34375,-9.84375 v -1.60938 h 1.40625 v 1.60938 z m 0,9.84375 v -8.29688 h 1.40625 v 8.29688 z m 3.55469,0 v -8.29688 h 1.26563 v 1.17188 q 0.90625,-1.35938 2.64062,-1.35938 0.75,0 1.375,0.26563 0.625,0.26562 0.9375,0.70312 0.3125,0.4375 0.4375,1.04688 0.0781,0.39062 0.0781,1.35937 v 5.10938 h -1.40625 v -5.04688 q 0,-0.85937 -0.17188,-1.28125 -0.15625,-0.4375 -0.57812,-0.6875 -0.40625,-0.25 -0.96875,-0.25 -0.90625,0 -1.5625,0.57813 -0.64063,0.5625 -0.64063,2.15625 v 4.53125 z m 8.63281,0.6875 1.375,0.20312 q 0.0781,0.64063 0.46875,0.92188 0.53125,0.39062 1.4375,0.39062 0.96875,0 1.5,-0.39062 0.53125,-0.39063 0.71875,-1.09375 0.10938,-0.42188 0.10938,-1.8125 -0.92188,1.09375 -2.29688,1.09375 -1.71875,0 -2.65625,-1.23438 -0.9375,-1.23437 -0.9375,-2.96875 0,-1.1875 0.42188,-2.1875 0.4375,-1 1.25,-1.54687 0.82812,-0.54688 1.92187,-0.54688 1.46875,0 2.42188,1.1875 v -1 h 1.29687 v 7.17188 q 0,1.9375 -0.39062,2.75 -0.39063,0.8125 -1.25,1.28125 -0.85938,0.46875 -2.10938,0.46875 -1.48437,0 -2.40625,-0.67188 -0.90625,-0.67187 -0.875,-2.01562 z m 1.17188,-4.98438 q 0,1.625 0.64062,2.375 0.65625,0.75 1.625,0.75 0.96875,0 1.625,-0.73437 0.65625,-0.75 0.65625,-2.34375 0,-1.53125 -0.67187,-2.29688 -0.67188,-0.78125 -1.625,-0.78125 -0.9375,0 -1.59375,0.76563 -0.65625,0.76562 -0.65625,2.26562 z"
       id="path4985"
       inkscape:connector-curvature="0"
       style="fill:#000000;fill-rule:nonzero" />
    <path
       d="m 515.10895,188.45305 1.39063,-0.21875 q 0.10937,0.84375 0.64062,1.29687 0.54688,0.4375 1.5,0.4375 0.96875,0 1.4375,-0.39062 0.46875,-0.40625 0.46875,-0.9375 0,-0.46875 -0.40625,-0.75 -0.29687,-0.1875 -1.4375,-0.46875 -1.54687,-0.39063 -2.15625,-0.67188 -0.59375,-0.29687 -0.90625,-0.79687 -0.29687,-0.5 -0.29687,-1.10938 0,-0.5625 0.25,-1.03125 0.25,-0.46875 0.6875,-0.78125 0.32812,-0.25 0.89062,-0.40625 0.57813,-0.17187 1.21875,-0.17187 0.98438,0 1.71875,0.28125 0.73438,0.28125 1.07813,0.76562 0.35937,0.46875 0.5,1.28125 l -1.375,0.1875 q -0.0937,-0.64062 -0.54688,-1 -0.45312,-0.35937 -1.26562,-0.35937 -0.96875,0 -1.39063,0.32812 -0.40625,0.3125 -0.40625,0.73438 0,0.28125 0.17188,0.5 0.17187,0.21875 0.53125,0.375 0.21875,0.0781 1.25,0.35937 1.48437,0.39063 2.07812,0.65625 0.59375,0.25 0.92188,0.73438 0.34375,0.48437 0.34375,1.20312 0,0.70313 -0.42188,1.32813 -0.40625,0.60937 -1.1875,0.95312 -0.76562,0.34375 -1.73437,0.34375 -1.625,0 -2.46875,-0.67187 -0.84375,-0.67188 -1.07813,-2 z m 11.625,1.21875 0.20313,1.25 q -0.59375,0.125 -1.0625,0.125 -0.76563,0 -1.1875,-0.23438 -0.42188,-0.25 -0.59375,-0.64062 -0.17188,-0.40625 -0.17188,-1.67188 v -4.76562 h -1.03125 v -1.09375 h 1.03125 v -2.0625 l 1.40625,-0.84375 v 2.90625 h 1.40625 v 1.09375 h -1.40625 v 4.84375 q 0,0.60937 0.0625,0.78125 0.0781,0.17187 0.25,0.28125 0.17188,0.0937 0.48438,0.0937 0.23437,0 0.60937,-0.0625 z m 6.78906,0.23437 q -0.78125,0.67188 -1.5,0.95313 -0.71875,0.26562 -1.54687,0.26562 -1.375,0 -2.10938,-0.67187 -0.73437,-0.67188 -0.73437,-1.70313 0,-0.60937 0.28125,-1.10937 0.28125,-0.51563 0.71875,-0.8125 0.45312,-0.3125 1.01562,-0.46875 0.42188,-0.10938 1.25,-0.20313 1.70313,-0.20312 2.51563,-0.48437 0,-0.29688 0,-0.375 0,-0.85938 -0.39063,-1.20313 -0.54687,-0.48437 -1.60937,-0.48437 -0.98438,0 -1.46875,0.35937 -0.46875,0.34375 -0.6875,1.21875 l -1.375,-0.1875 q 0.1875,-0.875 0.60937,-1.42187 0.4375,-0.54688 1.25,-0.82813 0.8125,-0.29687 1.875,-0.29687 1.0625,0 1.71875,0.25 0.67188,0.25 0.98438,0.625 0.3125,0.375 0.4375,0.95312 0.0781,0.35938 0.0781,1.29688 v 1.875 q 0,1.96875 0.0781,2.48437 0.0937,0.51563 0.35937,1 h -1.46875 q -0.21875,-0.4375 -0.28125,-1.03125 z m -0.10937,-3.14062 q -0.76563,0.3125 -2.29688,0.53125 -0.875,0.125 -1.23437,0.28125 -0.35938,0.15625 -0.5625,0.46875 -0.1875,0.29687 -0.1875,0.65625 0,0.5625 0.42187,0.9375 0.4375,0.375 1.25,0.375 0.8125,0 1.4375,-0.34375 0.64063,-0.35938 0.9375,-0.98438 0.23438,-0.46875 0.23438,-1.40625 z m 6.66406,2.90625 0.20313,1.25 q -0.59375,0.125 -1.0625,0.125 -0.76563,0 -1.1875,-0.23438 -0.42188,-0.25 -0.59375,-0.64062 -0.17188,-0.40625 -0.17188,-1.67188 v -4.76562 h -1.03125 v -1.09375 h 1.03125 v -2.0625 l 1.40625,-0.84375 v 2.90625 h 1.40625 v 1.09375 h -1.40625 v 4.84375 q 0,0.60937 0.0625,0.78125 0.0781,0.17187 0.25,0.28125 0.17188,0.0937 0.48438,0.0937 0.23437,0 0.60937,-0.0625 z m 7.05469,-1.40625 1.45312,0.17187 q -0.34375,1.28125 -1.28125,1.98438 -0.92187,0.70312 -2.35937,0.70312 -1.82813,0 -2.89063,-1.125 -1.0625,-1.125 -1.0625,-3.14062 0,-2.09375 1.07813,-3.25 1.07812,-1.15625 2.79687,-1.15625 1.65625,0 2.70313,1.14062 1.0625,1.125 1.0625,3.17188 0,0.125 0,0.375 h -6.1875 q 0.0781,1.375 0.76562,2.10937 0.70313,0.71875 1.73438,0.71875 0.78125,0 1.32812,-0.40625 0.54688,-0.40625 0.85938,-1.29687 z m -4.60938,-2.28125 h 4.625 q -0.0937,-1.04688 -0.53125,-1.5625 -0.67187,-0.8125 -1.73437,-0.8125 -0.96875,0 -1.64063,0.65625 -0.65625,0.64062 -0.71875,1.71875 z m 8.22657,-1.75 v -1.59375 h 1.59375 v 1.59375 z m 0,6.70312 v -1.60937 h 1.59375 v 1.60937 z m 8.15625,-3.6875 1.4375,-0.125 q 0.0937,0.85938 0.46875,1.42188 0.375,0.54687 1.15625,0.89062 0.78125,0.32813 1.75,0.32813 0.875,0 1.53125,-0.25 0.67187,-0.26563 0.98437,-0.70313 0.32813,-0.45312 0.32813,-0.98437 0,-0.54688 -0.3125,-0.9375 -0.3125,-0.40625 -1.03125,-0.6875 -0.45313,-0.17188 -2.03125,-0.54688 -1.57813,-0.39062 -2.21875,-0.71875 -0.8125,-0.4375 -1.21875,-1.0625 -0.40625,-0.64062 -0.40625,-1.4375 0,-0.85937 0.48437,-1.60937 0.5,-0.76563 1.4375,-1.15625 0.95313,-0.39063 2.10938,-0.39063 1.28125,0 2.25,0.42188 0.96875,0.40625 1.48437,1.20312 0.53125,0.79688 0.57813,1.79688 l -1.45313,0.10937 q -0.125,-1.07812 -0.79687,-1.625 -0.67188,-0.5625 -2,-0.5625 -1.375,0 -2,0.5 -0.625,0.5 -0.625,1.21875 0,0.60938 0.4375,1.01563 0.4375,0.39062 2.28125,0.8125 1.85937,0.42187 2.54687,0.73437 1,0.45313 1.46875,1.17188 0.48438,0.70312 0.48438,1.625 0,0.90625 -0.53125,1.71875 -0.51563,0.8125 -1.5,1.26562 -0.98438,0.45313 -2.20313,0.45313 -1.5625,0 -2.60937,-0.45313 -1.04688,-0.46875 -1.65625,-1.375 -0.59375,-0.90625 -0.625,-2.0625 z m 14.07812,2.42188 0.20313,1.25 q -0.59375,0.125 -1.0625,0.125 -0.76563,0 -1.1875,-0.23438 -0.42188,-0.25 -0.59375,-0.64062 -0.17188,-0.40625 -0.17188,-1.67188 v -4.76562 h -1.03125 v -1.09375 h 1.03125 v -2.0625 l 1.40625,-0.84375 v 2.90625 h 1.40625 v 1.09375 h -1.40625 v 4.84375 q 0,0.60937 0.0625,0.78125 0.0781,0.17187 0.25,0.28125 0.17188,0.0937 0.48438,0.0937 0.23437,0 0.60937,-0.0625 z m 1.36719,1.26562 v -8.29687 h 1.26562 v 1.25 q 0.48438,-0.875 0.89063,-1.15625 0.40625,-0.28125 0.90625,-0.28125 0.70312,0 1.4375,0.45312 l -0.48438,1.29688 q -0.51562,-0.29688 -1.03125,-0.29688 -0.45312,0 -0.82812,0.28125 -0.35938,0.26563 -0.51563,0.76563 -0.23437,0.75 -0.23437,1.64062 v 4.34375 z m 5.34375,-9.84375 v -1.60937 h 1.40625 v 1.60937 z m 0,9.84375 v -8.29687 h 1.40625 v 8.29687 z m 3.55469,0 v -8.29687 h 1.26562 v 1.17187 q 0.90625,-1.35937 2.64063,-1.35937 0.75,0 1.375,0.26562 0.625,0.26563 0.9375,0.70313 0.3125,0.4375 0.4375,1.04687 0.0781,0.39063 0.0781,1.35938 v 5.10937 h -1.40625 v -5.04687 q 0,-0.85938 -0.17187,-1.28125 -0.15625,-0.4375 -0.57813,-0.6875 -0.40625,-0.25 -0.96875,-0.25 -0.90625,0 -1.5625,0.57812 -0.64062,0.5625 -0.64062,2.15625 v 4.53125 z m 8.63281,0.6875 1.375,0.20313 q 0.0781,0.64062 0.46875,0.92187 0.53125,0.39063 1.4375,0.39063 0.96875,0 1.5,-0.39063 0.53125,-0.39062 0.71875,-1.09375 0.10937,-0.42187 0.10937,-1.8125 -0.92187,1.09375 -2.29687,1.09375 -1.71875,0 -2.65625,-1.23437 -0.9375,-1.23438 -0.9375,-2.96875 0,-1.1875 0.42187,-2.1875 0.4375,-1 1.25,-1.54688 0.82813,-0.54687 1.92188,-0.54687 1.46875,0 2.42187,1.1875 v -1 h 1.29688 v 7.17187 q 0,1.9375 -0.39063,2.75 -0.39062,0.8125 -1.25,1.28125 -0.85937,0.46875 -2.10937,0.46875 -1.48438,0 -2.40625,-0.67187 -0.90625,-0.67188 -0.875,-2.01563 z m 1.17187,-4.98437 q 0,1.625 0.64063,2.375 0.65625,0.75 1.625,0.75 0.96875,0 1.625,-0.73438 0.65625,-0.75 0.65625,-2.34375 0,-1.53125 -0.67188,-2.29687 -0.67187,-0.78125 -1.625,-0.78125 -0.9375,0 -1.59375,0.76562 -0.65625,0.76563 -0.65625,2.26563 z"
       id="path4987"
       inkscape:connector-curvature="0"
       style="fill:#000000;fill-rule:nonzero" />
    <path
       d="M 611.3386,104.38845 V 74.561675 h 146.2992"
       id="path4989"
       inkscape:connector-curvature="0"
       style="fill:#000000;fill-opacity:0;fill-rule:evenodd" />
    <path
       d="M 611.3386,104.38845 V 74.561675 h 146.2992"
       id="path4991"
       inkscape:connector-curvature="0"
       style="fill-rule:evenodd;stroke:#595959;stroke-width:1;stroke-linecap:butt;stroke-linejoin:round" />
    <path
       d="m 756.8819,74.54593 v 51.68504 h -39.81103"
       id="path4993"
       inkscape:connector-curvature="0"
       style="fill:#000000;fill-opacity:0;fill-rule:evenodd" />
    <path
       d="m 756.8819,74.54593 v 51.68504 h -39.81103"
       id="path4995"
       inkscape:connector-curvature="0"
       style="fill-rule:evenodd;stroke:#595959;stroke-width:1;stroke-linecap:butt;stroke-linejoin:round" />
    <path
       d="m 634.55585,45.82152 h 91.77954 v 38.771656 h -91.77954 z"
       id="path4997"
       inkscape:connector-curvature="0"
       style="fill:#000000;fill-opacity:0;fill-rule:evenodd" />
    <path
       d="M 644.61835,73.369026 V 61.884647 h 1.28125 v 1.078125 q 0.45312,-0.640625 1.01562,-0.953125 0.57813,-0.3125 1.39063,-0.3125 1.0625,0 1.875,0.546875 0.8125,0.546875 1.21875,1.546875 0.42187,0.984379 0.42187,2.171879 0,1.28125 -0.46875,2.296875 -0.45312,1.015625 -1.32812,1.5625 -0.85938,0.546875 -1.82813,0.546875 -0.70312,0 -1.26562,-0.296875 -0.54688,-0.296875 -0.90625,-0.75 v 4.046875 z m 1.26562,-7.296875 q 0,1.609375 0.64063,2.375 0.65625,0.765625 1.57812,0.765625 0.9375,0 1.60938,-0.796875 0.67187,-0.796875 0.67187,-2.453125 0,-1.59375 -0.65625,-2.375004 -0.65625,-0.796875 -1.5625,-0.796875 -0.89062,0 -1.59375,0.84375 -0.6875,0.843754 -0.6875,2.437504 z m 7.61719,4.109375 v -8.296879 h 1.26563 v 1.25 q 0.48437,-0.875 0.89062,-1.15625 0.40625,-0.28125 0.90625,-0.28125 0.70313,0 1.4375,0.453125 l -0.48437,1.296875 q -0.51563,-0.296875 -1.03125,-0.296875 -0.45313,0 -0.82813,0.28125 -0.35937,0.265625 -0.51562,0.765629 -0.23438,0.75 -0.23438,1.640625 v 4.34375 z m 11.01563,-2.671875 1.45312,0.171875 q -0.34375,1.28125 -1.28125,1.984375 -0.92187,0.703125 -2.35937,0.703125 -1.82813,0 -2.89063,-1.125 -1.0625,-1.125 -1.0625,-3.140625 0,-2.09375 1.07813,-3.250004 1.07812,-1.15625 2.79687,-1.15625 1.65625,0 2.70313,1.140625 1.0625,1.125 1.0625,3.171879 0,0.125 0,0.375 h -6.1875 q 0.0781,1.375 0.76562,2.109375 0.70313,0.71875 1.73438,0.71875 0.78125,0 1.32812,-0.40625 0.54688,-0.40625 0.85938,-1.296875 z m -4.60938,-2.28125 h 4.625 q -0.0937,-1.046875 -0.53125,-1.562504 -0.67187,-0.8125 -1.73437,-0.8125 -0.96875,0 -1.64063,0.65625 -0.65625,0.640629 -0.71875,1.718754 z m 10.13281,4.953125 -3.15625,-8.296879 h 1.48438 l 1.78125,4.968754 q 0.29687,0.796875 0.53125,1.671875 0.1875,-0.65625 0.53125,-1.578125 l 1.84375,-5.062504 h 1.4375 l -3.14063,8.296879 z m 5.70313,-9.843754 v -1.609375 h 1.40625 v 1.609375 z m 0,9.843754 v -8.296879 h 1.40625 v 8.296879 z m 3.02344,-4.15625 q 0,-2.296879 1.28125,-3.406254 1.07812,-0.921875 2.60937,-0.921875 1.71875,0 2.79688,1.125 1.09375,1.109375 1.09375,3.093754 0,1.59375 -0.48438,2.515625 -0.48437,0.921875 -1.40625,1.4375 -0.90625,0.5 -2,0.5 -1.73437,0 -2.8125,-1.109375 -1.07812,-1.125 -1.07812,-3.234375 z m 1.45312,0 q 0,1.59375 0.6875,2.390625 0.70313,0.796875 1.75,0.796875 1.04688,0 1.73438,-0.796875 0.70312,-0.796875 0.70312,-2.4375 0,-1.53125 -0.70312,-2.328129 -0.6875,-0.796875 -1.73438,-0.796875 -1.04687,0 -1.75,0.796875 -0.6875,0.781254 -0.6875,2.375004 z m 13.41406,4.15625 v -1.21875 q -0.96875,1.40625 -2.64062,1.40625 -0.73438,0 -1.375,-0.28125 -0.625,-0.28125 -0.9375,-0.703125 -0.3125,-0.4375 -0.4375,-1.046875 -0.0781,-0.421875 -0.0781,-1.3125 v -5.140629 h 1.40625 v 4.593754 q 0,1.109375 0.0781,1.484375 0.14062,0.5625 0.5625,0.875 0.4375,0.3125 1.0625,0.3125 0.64062,0 1.1875,-0.3125 0.5625,-0.328125 0.78125,-0.890625 0.23437,-0.5625 0.23437,-1.625 v -4.437504 h 1.40625 v 8.296879 z m 2.89844,-2.484375 1.39063,-0.21875 q 0.10937,0.84375 0.64062,1.296875 0.54688,0.4375 1.5,0.4375 0.96875,0 1.4375,-0.390625 0.46875,-0.40625 0.46875,-0.9375 0,-0.46875 -0.40625,-0.75 -0.29687,-0.1875 -1.4375,-0.46875 -1.54687,-0.390625 -2.15625,-0.671875 -0.59375,-0.296875 -0.90625,-0.796875 -0.29687,-0.5 -0.29687,-1.109375 0,-0.562504 0.25,-1.031254 0.25,-0.46875 0.6875,-0.78125 0.32812,-0.25 0.89062,-0.40625 0.57813,-0.171875 1.21875,-0.171875 0.98438,0 1.71875,0.28125 0.73438,0.28125 1.07813,0.765625 0.35937,0.46875 0.5,1.281254 l -1.375,0.1875 q -0.0937,-0.640629 -0.54688,-1.000004 -0.45312,-0.359375 -1.26562,-0.359375 -0.96875,0 -1.39063,0.328125 -0.40625,0.3125 -0.40625,0.734375 0,0.281254 0.17188,0.500004 0.17187,0.21875 0.53125,0.375 0.21875,0.07813 1.25,0.359375 1.48437,0.390625 2.07812,0.65625 0.59375,0.25 0.92188,0.734375 0.34375,0.484375 0.34375,1.203125 0,0.703125 -0.42188,1.328125 -0.40625,0.609375 -1.1875,0.953125 -0.76562,0.34375 -1.73437,0.34375 -1.625,0 -2.46875,-0.671875 -0.84375,-0.671875 -1.07813,-2 z"
       id="path4999"
       inkscape:connector-curvature="0"
       style="fill:#000000;fill-rule:nonzero" />
    <path
       d="m 722.55585,117.82153 h 91.77954 v 38.77164 h -91.77954 z"
       id="path5001"
       inkscape:connector-curvature="0"
       style="fill:#000000;fill-opacity:0;fill-rule:evenodd" />
    <path
       d="m 732.61835,142.18152 v -8.29688 h 1.26562 v 1.17188 q 0.90625,-1.35938 2.64063,-1.35938 0.75,0 1.375,0.26563 0.625,0.26562 0.9375,0.70312 0.3125,0.4375 0.4375,1.04688 0.0781,0.39062 0.0781,1.35937 v 5.10938 h -1.40625 v -5.04688 q 0,-0.85937 -0.17187,-1.28125 -0.15625,-0.4375 -0.57813,-0.6875 -0.40625,-0.25 -0.96875,-0.25 -0.90625,0 -1.5625,0.57813 -0.64062,0.5625 -0.64062,2.15625 v 4.53125 z m 14.57031,-2.67188 1.45313,0.17188 q -0.34375,1.28125 -1.28125,1.98437 -0.92188,0.70313 -2.35938,0.70313 -1.82812,0 -2.89062,-1.125 -1.0625,-1.125 -1.0625,-3.14063 0,-2.09375 1.07812,-3.25 1.07813,-1.15625 2.79688,-1.15625 1.65625,0 2.70312,1.14063 1.0625,1.125 1.0625,3.17187 0,0.125 0,0.375 h -6.1875 q 0.0781,1.375 0.76563,2.10938 0.70312,0.71875 1.73437,0.71875 0.78125,0 1.32813,-0.40625 0.54687,-0.40625 0.85937,-1.29688 z m -4.60937,-2.28125 h 4.625 q -0.0937,-1.04687 -0.53125,-1.5625 -0.67188,-0.8125 -1.73438,-0.8125 -0.96875,0 -1.64062,0.65625 -0.65625,0.64063 -0.71875,1.71875 z m 6.89843,4.95313 3.03125,-4.3125 -2.8125,-3.98438 h 1.76563 l 1.26562,1.9375 q 0.35938,0.5625 0.57813,0.9375 0.34375,-0.51562 0.64062,-0.92187 l 1.39063,-1.95313 h 1.6875 l -2.875,3.90625 3.09375,4.39063 h -1.73438 l -1.70312,-2.57813 -0.45313,-0.70312 -2.17187,3.28125 z m 12,-1.26563 0.20313,1.25 q -0.59375,0.125 -1.0625,0.125 -0.76563,0 -1.1875,-0.23437 -0.42188,-0.25 -0.59375,-0.64063 -0.17188,-0.40625 -0.17188,-1.67187 v -4.76563 h -1.03125 v -1.09375 h 1.03125 v -2.0625 l 1.40625,-0.84375 v 2.90625 h 1.40625 v 1.09375 h -1.40625 v 4.84375 q 0,0.60938 0.0625,0.78125 0.0781,0.17188 0.25,0.28125 0.17188,0.0937 0.48438,0.0937 0.23437,0 0.60937,-0.0625 z"
       id="path5003"
       inkscape:connector-curvature="0"
       style="fill:#000000;fill-rule:nonzero" />
  </g>
</svg>
